<svg version="1.1" id="Layer_1" xmlns="http://www.w3.org/2000/svg" xmlns:xlink="http://www.w3.org/1999/xlink" x="0px" y="0px"
	 width="100%" viewBox="0 0 2231 2139" enable-background="new 0 0 2231 2139" xml:space="preserve">
<path fill="#000000" opacity="1.000000" stroke="none" 
	d="
M2.545515,1470.536743 
	C2.000000,980.715698 2.000000,491.431396 2.000000,2.073544 
	C745.876465,2.073544 1489.752930,2.073544 2233.814697,2.073544 
	C2233.814697,715.138245 2233.814697,1428.276489 2233.814697,2141.707520 
	C1490.000122,2141.707520 746.000061,2141.707520 2.000000,2141.707520 
	C2.000000,1922.497437 2.000000,1703.186035 2.000000,1482.937256 
	C5.229986,1478.568359 8.349713,1478.077637 10.477054,1482.910767 
	C17.281898,1498.370972 28.921373,1507.908325 45.328808,1511.527344 
	C66.689041,1516.239014 87.826591,1515.897705 107.611549,1505.693237 
	C120.178131,1499.211914 126.412430,1487.826294 125.912148,1473.645752 
	C125.412857,1459.493164 118.496536,1448.935303 105.456543,1442.969727 
	C95.122025,1438.241821 84.172775,1435.363281 73.066750,1432.998779 
	C62.659313,1430.782959 52.128616,1428.811890 42.924042,1422.945801 
	C32.992096,1416.615723 33.218124,1404.846191 43.378708,1398.785522 
	C60.279335,1388.704468 81.529785,1391.698242 95.150238,1406.118896 
	C96.995674,1408.072754 98.857880,1410.017090 101.396812,1410.984863 
	C106.580360,1412.960327 112.178619,1414.127930 116.297943,1409.577271 
	C120.523598,1404.908936 117.269501,1400.135376 114.464058,1395.975464 
	C109.800224,1389.060181 103.086464,1384.803833 95.179367,1382.548950 
	C77.164810,1377.411743 58.950684,1377.264038 40.924141,1382.012451 
	C24.968357,1386.215332 15.526448,1397.157104 14.546611,1410.997681 
	C13.561452,1424.913330 21.523598,1436.494629 36.722061,1443.273804 
	C49.929699,1449.165039 64.303696,1450.793335 78.087288,1454.579224 
	C83.560989,1456.082764 89.091232,1457.449829 93.852837,1460.658325 
	C105.055008,1468.206421 105.718864,1481.325684 95.445999,1490.073608 
	C79.546371,1503.613037 49.973003,1501.686279 37.733002,1484.783569 
	C30.582769,1474.909302 22.380842,1471.951538 11.322128,1473.175049 
	C8.348271,1473.504150 5.278680,1473.943970 2.545515,1470.536743 
z"/>
<path fill="#3E9C6C" opacity="1.000000" stroke="none" 
	d="
M1.999999,1470.856934 
	C10.606733,1469.251343 19.252890,1468.794556 27.804749,1467.639771 
	C32.592117,1466.993164 34.996979,1467.918335 36.489323,1472.948608 
	C40.072128,1485.025391 48.854515,1491.249878 61.097801,1493.361450 
	C69.234116,1494.764648 77.029099,1493.670898 84.706459,1491.267944 
	C88.202644,1490.173340 91.200378,1488.012695 93.760803,1485.249512 
	C101.296883,1477.116943 99.762154,1468.170166 89.621208,1463.451660 
	C81.113472,1459.493042 71.771309,1458.249268 62.739124,1456.030884 
	C52.413708,1453.495117 41.896290,1451.560303 32.248974,1446.849121 
	C20.681936,1441.200439 12.112786,1433.058716 9.439630,1419.735840 
	C6.660474,1405.885010 11.491486,1394.959717 21.781408,1386.130981 
	C29.582470,1379.437988 39.025318,1375.964478 49.085987,1374.899048 
	C65.010437,1373.213135 80.990570,1372.638550 96.548515,1377.693848 
	C106.620346,1380.966553 115.331642,1386.229492 120.865845,1395.653320 
	C122.370995,1398.216431 123.782959,1400.900513 124.758064,1403.696411 
	C128.407486,1414.160645 126.965744,1416.311523 116.117264,1417.200439 
	C112.805138,1417.471680 109.491798,1417.731812 106.183159,1418.041382 
	C99.209946,1418.693726 93.049301,1418.237549 91.104309,1409.578735 
	C90.447578,1406.655273 87.851921,1404.557983 85.434608,1402.769409 
	C76.155624,1395.903809 53.460140,1396.366089 44.513245,1403.515869 
	C38.905289,1407.997314 38.858383,1414.211304 44.596169,1418.578125 
	C48.062035,1421.215820 52.045612,1422.926147 56.300777,1423.985229 
	C69.528709,1427.277710 82.793533,1430.435791 95.954651,1433.978271 
	C105.676888,1436.594971 114.943390,1440.441040 121.801086,1448.228027 
	C138.915649,1467.661987 132.917618,1497.671265 110.818535,1509.890381 
	C95.061211,1518.602905 77.845955,1519.669678 60.414783,1518.733521 
	C53.144402,1518.343140 45.916504,1517.210449 38.844894,1515.053467 
	C24.302689,1510.617798 13.740703,1501.847778 7.366806,1487.955933 
	C6.315706,1485.664917 6.275176,1482.586914 2.694807,1481.669067 
	C2.000000,1478.571289 2.000000,1475.142578 1.999999,1470.856934 
z"/>
<path fill="#3F9E6D" opacity="1.000000" stroke="none" 
	d="
M1128.286499,1203.149536 
	C1076.687378,1151.581543 1025.566895,1100.476440 974.448486,1049.369507 
	C907.544617,982.480835 840.643250,915.589600 773.738892,848.701416 
	C702.602661,777.582520 631.464172,706.465881 560.328125,635.346741 
	C559.149841,634.168762 558.076111,632.870056 556.806396,631.802856 
	C553.049927,628.645508 553.742249,626.006470 557.036438,622.765869 
	C570.068115,609.945984 582.886719,596.909729 595.799988,583.969299 
	C648.851257,530.806702 701.875122,477.616760 754.972900,424.500671 
	C801.971924,377.485443 849.076904,330.576172 896.096558,283.581573 
	C957.232544,222.478195 1018.326843,161.333176 1079.447144,100.214073 
	C1093.549438,86.112129 1107.738037,72.096207 1121.781616,57.936092 
	C1128.808472,50.850842 1127.724243,49.892033 1135.476196,57.628681 
	C1163.065796,85.163681 1190.635620,112.718552 1218.199707,140.279068 
	C1268.141113,190.213699 1318.093750,240.136841 1368.003296,290.103180 
	C1432.755249,354.928772 1497.432373,419.829163 1562.212891,484.626160 
	C1608.150269,530.575195 1654.205688,576.406250 1700.207764,622.290588 
	C1701.859253,623.937866 1703.398071,625.717224 1705.173340,627.217346 
	C1708.869385,630.340454 1708.398804,633.022644 1705.090698,636.266296 
	C1693.931641,647.207947 1682.972656,658.353088 1671.916382,669.399719 
	C1625.330078,715.945190 1578.719360,762.466370 1532.148926,809.027710 
	C1459.237183,881.925415 1386.353882,954.851685 1313.452271,1027.759521 
	C1258.184448,1083.032104 1202.905640,1138.293701 1147.637329,1193.565796 
	C1144.108765,1197.094482 1140.541382,1200.590820 1137.152344,1204.250732 
	C1133.970337,1207.687256 1131.368286,1206.327393 1128.286499,1203.149536 
z"/>
<path fill="#3E9C6C" opacity="1.000000" stroke="none" 
	d="
M1747.943481,1789.105713 
	C1685.638916,1789.105713 1624.324219,1789.052856 1563.009766,1789.153442 
	C1551.568237,1789.172241 1540.301636,1788.891113 1530.335083,1782.284668 
	C1528.025269,1780.753540 1526.230713,1781.241211 1524.020386,1782.604858 
	C1515.202637,1788.044800 1505.420654,1789.164795 1495.243530,1789.159302 
	C1350.954102,1789.080566 1206.664795,1789.105835 1062.375366,1789.105591 
	C1061.708862,1789.105591 1061.042480,1789.107788 1060.375977,1789.104004 
	C1048.347046,1789.036743 1048.339844,1789.036499 1048.312622,1777.073486 
	C1048.292114,1768.076294 1048.224731,1759.078247 1048.315186,1750.082031 
	C1048.357422,1745.885620 1047.026489,1742.827393 1042.503052,1742.275635 
	C1038.585327,1741.797852 1035.895752,1744.755859 1035.779297,1750.190552 
	C1035.565063,1760.182983 1035.669678,1770.183228 1035.698730,1780.179932 
	C1035.719116,1787.216309 1034.645996,1794.091309 1032.624268,1800.801025 
	C1027.082886,1819.190430 1014.619080,1829.426025 995.509277,1829.891968 
	C973.862183,1830.419800 952.181091,1830.449951 930.535583,1829.889771 
	C909.825500,1829.354004 895.771301,1816.297852 892.582642,1794.398315 
	C890.178894,1777.889771 891.903809,1761.130615 891.748535,1744.483398 
	C891.715393,1740.936646 893.831116,1740.015137 896.914734,1740.037231 
	C903.245544,1740.082642 909.580811,1740.174561 915.906799,1739.991577 
	C920.293579,1739.864624 921.744507,1741.913330 921.691833,1746.032715 
	C921.572693,1755.361572 921.644653,1764.693115 921.701843,1774.023315 
	C921.722229,1777.349731 921.649353,1780.712158 922.093140,1783.994141 
	C923.618896,1795.277344 927.743713,1798.932739 939.269348,1799.023315 
	C955.263489,1799.148926 971.259827,1799.134033 987.254272,1799.029175 
	C998.737000,1798.953857 1003.698914,1794.384521 1004.182068,1782.885376 
	C1004.587402,1773.238159 1004.491272,1763.556519 1004.235718,1753.900146 
	C1004.084167,1748.174805 1004.847351,1742.575928 1005.928284,1737.062988 
	C1008.483582,1724.030151 1016.309143,1715.623047 1029.427979,1712.876587 
	C1037.619263,1711.161865 1046.070312,1711.158081 1054.230835,1712.795410 
	C1070.129395,1715.985352 1078.693237,1726.904541 1079.665039,1744.115845 
	C1080.449219,1758.004883 1080.449829,1758.081665 1094.490234,1757.965210 
	C1099.426392,1757.924316 1104.453735,1758.740967 1109.678833,1757.037964 
	C1108.278198,1747.050781 1107.338257,1737.262695 1110.755005,1727.458252 
	C1117.402466,1708.383423 1134.682251,1697.067871 1156.404297,1696.962891 
	C1177.407959,1696.861328 1194.068481,1713.125366 1198.956665,1729.022949 
	C1200.958984,1735.535400 1200.225586,1742.237549 1200.359985,1748.878296 
	C1200.541260,1757.825317 1200.524658,1757.963745 1209.017822,1757.978760 
	C1242.674072,1758.038208 1276.330811,1758.046631 1309.986938,1757.973999 
	C1318.528809,1757.955566 1321.691772,1755.247070 1324.390015,1747.089600 
	C1325.902710,1742.516113 1325.598267,1737.879517 1325.625610,1733.235107 
	C1325.680664,1723.904907 1325.767456,1714.572876 1325.625854,1705.244751 
	C1325.562744,1701.096924 1327.093018,1699.050171 1331.388184,1699.115723 
	C1337.717529,1699.212280 1344.049927,1699.186646 1350.379883,1699.108643 
	C1354.455811,1699.058472 1356.492188,1700.642700 1356.359497,1705.012939 
	C1355.884644,1720.649048 1357.604980,1736.360962 1355.211304,1751.911743 
	C1354.520508,1756.399170 1355.392578,1757.851318 1359.911865,1758.064697 
	C1369.901855,1758.536743 1373.931152,1755.788086 1376.297485,1746.068970 
	C1378.859863,1735.544678 1377.302002,1724.840576 1377.605957,1714.221436 
	C1378.075806,1697.805420 1375.088379,1699.082520 1392.405151,1699.105347 
	C1411.222046,1699.130249 1408.162476,1697.420288 1408.303589,1715.029907 
	C1408.404907,1727.668091 1408.952759,1740.332520 1407.154419,1752.936279 
	C1406.495483,1757.554688 1408.802246,1759.244507 1412.773193,1757.180420 
	C1419.479126,1753.694580 1421.505127,1747.483521 1421.594482,1740.481079 
	C1421.722046,1730.485718 1421.628052,1720.487549 1421.644775,1710.490601 
	C1421.648682,1708.159058 1421.732788,1705.827637 1421.753174,1703.495972 
	C1421.778564,1700.581909 1423.453247,1699.384155 1426.141846,1699.216309 
	C1426.807007,1699.174927 1427.476318,1699.082275 1428.137817,1699.119263 
	C1435.737427,1699.544678 1445.098511,1696.009888 1450.467651,1700.719238 
	C1455.603882,1705.223755 1451.876953,1714.567139 1452.286865,1721.764404 
	C1452.627441,1727.743164 1452.467407,1733.759399 1452.324219,1739.754150 
	C1452.189331,1745.401978 1451.786255,1751.043457 1451.500000,1756.713501 
	C1453.786499,1758.633545 1456.562378,1757.957642 1459.153076,1757.973145 
	C1471.148926,1758.044556 1483.145996,1758.067505 1495.141846,1757.986816 
	C1505.941528,1757.914062 1510.043457,1754.339355 1511.550903,1743.445435 
	C1512.141602,1739.176025 1512.219238,1734.817749 1512.278564,1730.496582 
	C1512.392944,1722.167236 1512.462280,1713.832520 1512.280640,1705.505981 
	C1512.190186,1701.356689 1513.815186,1699.267822 1517.955322,1699.159668 
	C1518.288330,1699.151001 1518.622314,1699.146851 1518.953613,1699.115845 
	C1542.361450,1696.914917 1542.231201,1696.915894 1542.430054,1720.572388 
	C1542.502319,1729.175537 1541.227783,1737.867188 1543.681274,1746.384766 
	C1546.313965,1755.524780 1549.127197,1757.900757 1558.389282,1757.982788 
	C1569.051880,1758.077148 1579.716919,1758.099243 1590.378906,1757.970825 
	C1598.533813,1757.872803 1601.585571,1755.433838 1604.010498,1747.575562 
	C1605.192139,1743.745850 1605.741455,1739.851318 1605.685059,1735.799561 
	C1605.546021,1725.804565 1605.786987,1715.803833 1605.597412,1705.810669 
	C1605.511230,1701.270874 1607.042725,1699.404541 1611.812744,1699.013428 
	C1636.371216,1697.000000 1636.405518,1696.881226 1636.342041,1721.440552 
	C1636.312012,1733.071289 1637.092041,1744.747314 1634.543457,1756.203491 
	C1648.274902,1760.513794 1654.039062,1757.328857 1656.703003,1743.846802 
	C1658.788086,1733.293945 1657.314697,1722.589722 1657.609985,1711.958252 
	C1657.975098,1698.807617 1655.646973,1699.101807 1670.669556,1699.067871 
	C1674.335083,1699.059692 1678.011230,1699.275635 1681.663452,1699.062134 
	C1686.998047,1698.750122 1688.589111,1701.302979 1688.403564,1706.298340 
	C1687.824219,1721.898926 1689.490601,1737.567017 1686.733887,1753.111694 
	C1685.968872,1757.425049 1688.760620,1759.290039 1692.735840,1757.182861 
	C1699.388428,1753.656494 1701.426025,1747.346558 1701.568970,1740.420166 
	C1701.795776,1729.428101 1701.553711,1718.427124 1701.673706,1707.431885 
	C1701.761963,1699.343628 1701.877441,1699.310791 1710.197754,1699.092285 
	C1713.860840,1698.996094 1717.528687,1699.045898 1721.194092,1699.070679 
	C1732.282471,1699.145630 1732.400635,1699.154541 1732.327393,1709.823853 
	C1732.220215,1725.458618 1733.048340,1741.111572 1731.179688,1757.805298 
	C1743.403198,1757.805298 1755.330811,1758.340942 1767.181763,1757.619263 
	C1775.234741,1757.128906 1779.221802,1752.078491 1780.340698,1743.995239 
	C1780.977417,1739.395752 1781.245850,1734.689209 1782.434326,1730.231934 
	C1788.047729,1709.180664 1807.226562,1696.680176 1827.817017,1696.787720 
	C1848.413452,1696.895264 1867.384766,1712.318970 1871.767212,1730.915039 
	C1876.528442,1751.118408 1870.817383,1767.978638 1854.256836,1780.292725 
	C1838.244873,1792.198853 1820.930054,1791.999268 1803.404785,1783.118896 
	C1800.658325,1781.727173 1798.416992,1778.631104 1794.450195,1781.045288 
	C1781.328247,1789.030640 1766.692261,1789.511963 1751.928101,1789.109375 
	C1750.930542,1789.082153 1749.931641,1789.105713 1747.943481,1789.105713 
z"/>
<path fill="#3E9B6B" opacity="1.000000" stroke="none" 
	d="
M441.077576,1789.058105 
	C414.517456,1786.230591 403.593384,1771.558472 402.167114,1747.979858 
	C400.700653,1723.737671 401.795563,1699.343750 401.628113,1675.017090 
	C401.598114,1670.658203 403.527069,1669.053345 407.611572,1669.101562 
	C413.609497,1669.172241 419.615723,1669.278076 425.605896,1669.045898 
	C430.857300,1668.842651 432.481262,1671.161255 432.431946,1676.232666 
	C432.237396,1696.228027 432.353271,1716.226562 432.376129,1736.223877 
	C432.379181,1738.886841 432.040314,1741.664673 432.661743,1744.192261 
	C435.341003,1755.090332 440.513733,1758.747192 448.953003,1758.156128 
	C458.520569,1757.486084 468.171173,1758.001587 477.645721,1758.001587 
	C477.645721,1751.680664 477.544128,1746.162109 477.663147,1740.648315 
	C478.201263,1715.718994 498.182648,1697.599731 523.980530,1696.889771 
	C550.000549,1696.173462 570.853210,1720.502197 569.718201,1741.379639 
	C569.537598,1744.702148 569.934875,1748.061768 569.669250,1751.372681 
	C569.235352,1756.780518 571.875305,1758.081787 576.795471,1758.062744 
	C611.123718,1757.929565 645.453003,1758.066772 679.781372,1757.946411 
	C688.704041,1757.915161 693.634521,1752.648071 694.134216,1742.374023 
	C694.587097,1733.063232 694.147217,1723.712646 694.334167,1714.384277 
	C694.645691,1698.830811 690.924927,1699.046265 710.063171,1699.052612 
	C729.077454,1699.058960 725.544434,1698.815308 725.600403,1714.518677 
	C725.644165,1726.808472 726.772522,1739.171753 724.359192,1751.387085 
	C723.483032,1755.821899 724.408569,1758.121826 729.753784,1758.111206 
	C738.902222,1758.093018 743.235779,1755.258179 745.463196,1746.280396 
	C747.009705,1740.047119 746.173157,1733.668213 746.278748,1727.353760 
	C746.401245,1720.023438 746.493042,1712.684570 746.273071,1705.359253 
	C746.143921,1701.057739 748.095703,1699.199219 752.093445,1699.158936 
	C758.757507,1699.091797 765.423035,1699.119629 772.087524,1699.169434 
	C776.273376,1699.200806 777.877930,1701.425293 777.703064,1705.540649 
	C777.096375,1719.824097 778.965637,1734.177612 776.457153,1748.414673 
	C776.112000,1750.373657 776.059631,1752.393188 775.986938,1754.388916 
	C775.864258,1757.759399 778.038818,1758.438599 780.572144,1757.575562 
	C786.586121,1755.526489 789.161133,1750.810181 790.199524,1744.777954 
	C791.962341,1734.537231 791.594360,1724.230957 791.632812,1713.928955 
	C791.640259,1711.929199 791.603516,1709.928711 791.644104,1707.929810 
	C791.819641,1699.294189 791.826294,1699.228760 800.692993,1699.091431 
	C806.021790,1699.008911 811.357239,1699.079834 816.684021,1699.255005 
	C819.679626,1699.353638 821.733704,1700.708862 821.636047,1704.139526 
	C821.153320,1721.081909 823.226685,1738.115601 820.175293,1754.961304 
	C816.300415,1776.353027 802.674133,1788.087402 780.922302,1789.075195 
	C778.926331,1789.165894 776.923401,1789.111816 774.923706,1789.111694 
	C663.938477,1789.104370 552.953186,1789.095825 441.077576,1789.058105 
z"/>
<path fill="#3E9C6C" opacity="1.000000" stroke="none" 
	d="
M1181.870850,1374.010010 
	C1208.287598,1374.430542 1229.583008,1383.065552 1244.373413,1404.843994 
	C1248.578613,1411.036255 1250.864624,1417.903809 1252.660767,1425.043091 
	C1256.645508,1440.880615 1256.519531,1456.813354 1251.558716,1472.220825 
	C1242.904053,1499.099854 1222.854736,1512.952393 1195.912964,1517.657593 
	C1181.343750,1520.202148 1166.767456,1519.377075 1152.355225,1515.840942 
	C1121.836426,1508.352905 1102.062988,1483.687866 1101.676270,1452.325806 
	C1101.582031,1444.677124 1101.154541,1436.989990 1102.607422,1429.400269 
	C1108.762817,1397.244751 1134.913818,1375.062012 1167.910278,1374.039062 
	C1172.237793,1373.904785 1176.572876,1374.013184 1181.870850,1374.010010 
z"/>
<path fill="#3E9C6C" opacity="1.000000" stroke="none" 
	d="
M1431.585205,1486.968140 
	C1424.249634,1506.419434 1409.095215,1514.212036 1390.719116,1517.333374 
	C1374.461426,1520.094849 1358.189087,1519.902588 1342.219971,1515.505859 
	C1321.615601,1509.832886 1309.539795,1496.209961 1305.248413,1475.262451 
	C1304.364014,1470.946045 1306.020386,1469.676514 1309.389893,1469.327637 
	C1316.995361,1468.540161 1324.629395,1468.033691 1332.248413,1467.372559 
	C1335.583008,1467.083130 1337.062866,1468.945312 1337.811401,1471.854492 
	C1343.818237,1495.200439 1372.044434,1497.427124 1388.278198,1490.583740 
	C1392.092163,1488.975952 1395.130981,1486.408813 1397.537842,1483.183350 
	C1402.338379,1476.750000 1401.012939,1469.382202 1394.281494,1465.072632 
	C1390.330566,1462.543457 1385.855103,1461.143799 1381.314453,1460.032715 
	C1370.321289,1457.342896 1359.306274,1454.741211 1348.330933,1451.980957 
	C1341.855225,1450.352417 1335.649658,1447.911255 1329.834229,1444.629761 
	C1317.544556,1437.695435 1310.453613,1427.063721 1310.512817,1413.001343 
	C1310.573853,1398.491943 1317.965332,1387.879639 1331.030151,1381.234863 
	C1340.104736,1376.619751 1349.634888,1374.068604 1359.799072,1374.030762 
	C1372.438843,1373.983765 1385.112061,1373.303101 1397.446167,1377.288696 
	C1410.107544,1381.380127 1419.927490,1388.692139 1425.454834,1401.039673 
	C1426.665894,1403.745239 1427.534424,1406.697632 1427.995605,1409.625488 
	C1428.923340,1415.515991 1428.013062,1416.606934 1421.978882,1417.040039 
	C1415.344360,1417.516357 1408.681030,1417.595093 1402.046997,1418.076050 
	C1398.221191,1418.353271 1395.731323,1417.207764 1394.598999,1413.320312 
	C1391.364380,1402.215332 1382.556641,1398.903442 1372.361450,1398.132080 
	C1365.049072,1397.578735 1357.710205,1397.775757 1350.790527,1400.932983 
	C1346.374390,1402.947998 1342.117310,1405.341675 1342.091187,1410.778687 
	C1342.065918,1416.025391 1345.651123,1419.117798 1350.242432,1421.110840 
	C1357.927124,1424.446899 1366.024536,1426.358398 1374.183960,1428.023804 
	C1385.282349,1430.288940 1396.263428,1432.939941 1406.813232,1437.160034 
	C1421.972778,1443.224487 1431.089722,1454.018799 1433.424805,1470.423584 
	C1434.205444,1475.906860 1432.552246,1480.965454 1431.585205,1486.968140 
z"/>
<path fill="#3E9D6D" opacity="1.000000" stroke="none" 
	d="
M947.680054,1480.022705 
	C947.668945,1490.681396 947.565369,1500.348145 947.690002,1510.011841 
	C947.743225,1514.142700 946.291626,1516.161865 941.908752,1516.049438 
	C934.914307,1515.869995 927.910156,1515.895996 920.913757,1516.026367 
	C916.995056,1516.099365 915.542969,1514.221069 915.682068,1510.563354 
	C915.745361,1508.899902 915.652588,1507.231079 915.652527,1505.564697 
	C915.650024,1465.902588 915.650452,1426.240356 915.651855,1386.578247 
	C915.651855,1385.245117 915.755371,1383.905884 915.661560,1382.579956 
	C915.346252,1378.124390 916.824097,1375.739258 921.844238,1375.967285 
	C928.496460,1376.269287 935.175842,1376.175415 941.837219,1376.003418 
	C946.158936,1375.891724 947.722839,1377.789917 947.689514,1381.976807 
	C947.583313,1395.307617 947.600586,1408.640503 947.712952,1421.971436 
	C947.787231,1430.790894 947.895508,1430.957275 956.645569,1431.033325 
	C971.642639,1431.163574 986.643250,1431.186523 1001.639282,1431.002930 
	C1009.042908,1430.912354 1009.514893,1430.356812 1009.600830,1422.886841 
	C1009.750366,1409.890015 1009.567200,1396.889404 1009.698242,1383.892090 
	C1009.775208,1376.250366 1009.925415,1376.176880 1017.531433,1376.048706 
	C1023.862122,1375.941895 1030.200928,1376.188965 1036.527222,1375.992920 
	C1040.886963,1375.857910 1042.533081,1377.801514 1042.336792,1381.950439 
	C1042.210938,1384.610107 1042.349121,1387.281860 1042.349365,1389.948120 
	C1042.351929,1427.277222 1042.351074,1464.606323 1042.350952,1501.935425 
	C1042.350952,1503.268555 1042.359741,1504.601929 1042.346924,1505.934937 
	C1042.251099,1515.928101 1042.249878,1515.942261 1032.717041,1516.025757 
	C1028.384521,1516.063599 1024.051270,1516.055786 1019.718567,1516.027710 
	C1009.775085,1515.963379 1009.713196,1515.953369 1009.671143,1506.367310 
	C1009.611145,1492.702515 1009.699219,1479.036987 1009.635437,1465.372192 
	C1009.588501,1455.317749 1009.526123,1455.201294 999.775269,1455.142334 
	C984.777771,1455.051514 969.778503,1455.218872 954.781311,1455.105835 
	C949.873779,1455.068848 947.367737,1456.698120 947.641968,1462.034790 
	C947.932190,1467.685425 947.689819,1473.363403 947.680054,1480.022705 
z"/>
<path fill="#3F9E6D" opacity="1.000000" stroke="none" 
	d="
M211.833054,1376.026001 
	C213.454468,1376.026611 214.121399,1376.012085 214.787460,1376.029663 
	C224.184418,1376.276611 224.261719,1376.277100 224.320877,1385.213867 
	C224.400284,1397.210815 224.286118,1409.208984 224.367096,1421.205933 
	C224.431946,1430.816406 224.504761,1430.970947 233.662140,1431.049805 
	C248.324432,1431.176025 262.990326,1431.199951 277.651489,1431.014038 
	C285.048157,1430.920410 285.517731,1430.368896 285.603546,1422.890747 
	C285.752747,1409.895264 285.569824,1396.895996 285.700348,1383.900024 
	C285.777100,1376.255981 285.926941,1376.182495 293.527344,1376.054321 
	C299.857361,1375.947510 306.195557,1376.195435 312.521149,1375.997925 
	C316.883759,1375.861694 318.405914,1377.807739 318.340271,1381.954468 
	C318.213684,1389.950439 318.336395,1397.950195 318.337463,1405.948364 
	C318.341766,1438.274780 318.339844,1470.601074 318.337555,1502.927490 
	C318.337372,1505.260254 318.159485,1507.604980 318.336914,1509.923340 
	C318.714905,1514.862427 316.211975,1516.256104 311.712463,1516.065796 
	C306.390045,1515.840454 301.050262,1516.051025 295.718292,1516.020508 
	C285.777191,1515.963623 285.715668,1515.948120 285.673706,1506.363647 
	C285.613861,1492.700317 285.701538,1479.036011 285.638123,1465.372681 
	C285.591431,1455.307861 285.529388,1455.197144 275.790161,1455.130859 
	C261.460663,1455.033325 247.128647,1454.999756 232.800186,1455.160522 
	C224.624298,1455.252197 224.449997,1455.481323 224.383698,1463.783447 
	C224.263931,1478.779419 224.431915,1493.777710 224.286972,1508.773193 
	C224.219467,1515.758545 224.016983,1515.848755 216.870331,1515.992554 
	C210.541031,1516.119995 204.196625,1515.787354 197.878387,1516.079468 
	C192.915649,1516.309204 191.334259,1514.041260 191.658356,1509.516968 
	C191.800812,1507.528320 191.657654,1505.519775 191.657578,1503.520264 
	C191.655991,1465.195190 191.656006,1426.870117 191.657654,1388.545044 
	C191.657745,1386.545532 191.795456,1384.537964 191.660782,1382.548096 
	C191.355850,1378.043335 192.910324,1375.656494 197.884933,1375.985352 
	C202.198059,1376.270386 206.545746,1376.032593 211.833054,1376.026001 
z"/>
<path fill="#3E9C6C" opacity="1.000000" stroke="none" 
	d="
M1943.279785,1507.577026 
	C1941.530640,1513.684082 1938.922485,1516.708130 1932.463257,1516.202271 
	C1923.929565,1515.534180 1915.304077,1516.037842 1906.955688,1516.037842 
	C1905.767944,1511.899170 1907.558228,1509.281982 1908.723022,1506.622192 
	C1926.462402,1466.113037 1944.416748,1425.696777 1961.901733,1385.078491 
	C1964.810181,1378.322266 1968.261963,1375.017822 1975.872070,1375.879639 
	C1981.791504,1376.550049 1987.863647,1376.291260 1993.837280,1375.934204 
	C1998.959351,1375.627930 2001.532837,1377.738892 2003.565552,1382.371704 
	C2012.252563,1402.169678 2021.311646,1421.804443 2030.244141,1441.494751 
	C2039.994873,1462.988892 2049.771729,1484.471313 2059.494141,1505.978271 
	C2060.827393,1508.927124 2063.118652,1511.665649 2061.828369,1516.013184 
	C2052.394531,1516.013184 2042.771729,1515.922363 2033.152222,1516.061035 
	C2029.642212,1516.111450 2027.713623,1514.682007 2026.417603,1511.466064 
	C2023.558228,1504.370972 2020.283447,1497.442871 2017.432861,1490.344482 
	C2016.001831,1486.781128 2013.770508,1485.130249 2009.919800,1485.145752 
	C1992.601074,1485.216064 1975.281860,1485.220215 1957.963379,1485.134033 
	C1954.131836,1485.114990 1951.785278,1486.606689 1950.421875,1490.236450 
	C1948.316772,1495.840454 1945.917603,1501.333984 1943.279785,1507.577026 
z"/>
<path fill="#3E9C6C" opacity="1.000000" stroke="none" 
	d="
M696.112488,1376.013184 
	C703.002258,1376.361450 709.932617,1373.900757 714.664490,1377.207520 
	C719.338013,1380.473389 720.126465,1387.582397 722.598267,1393.016113 
	C739.674561,1430.553955 756.766418,1468.084717 773.828186,1505.629272 
	C775.177734,1508.598877 777.297180,1511.364014 776.650696,1515.461914 
	C766.513306,1516.686768 756.273682,1515.800415 746.067810,1515.962158 
	C743.187622,1516.007812 742.165161,1514.115112 741.196899,1511.832520 
	C738.209717,1504.789673 734.848389,1497.896606 732.097961,1490.765747 
	C730.526062,1486.690186 728.018250,1485.113770 723.840027,1485.132568 
	C706.849121,1485.208862 689.856689,1485.265259 672.867126,1485.098755 
	C668.479675,1485.055908 666.092834,1487.033447 664.616638,1490.822876 
	C662.201477,1497.022949 659.664612,1503.176025 657.300049,1509.394897 
	C655.605591,1513.851440 653.124329,1516.413574 647.742371,1516.152222 
	C638.829102,1515.719360 629.879456,1516.034424 620.972839,1516.034424 
	C620.280457,1511.689941 622.367065,1508.869019 623.655151,1505.923462 
	C640.715210,1466.911743 658.317627,1428.128174 674.697083,1388.834106 
	C679.014465,1378.476807 684.307312,1373.870728 696.112488,1376.013184 
z"/>
<path fill="#3E9D6D" opacity="1.000000" stroke="none" 
	d="
M1526.357910,1472.573486 
	C1526.343750,1485.511353 1526.227661,1497.509521 1526.377808,1509.504150 
	C1526.434082,1514.004028 1525.127075,1516.297607 1520.144653,1516.086426 
	C1513.159058,1515.790161 1506.150513,1515.917358 1499.154419,1516.032104 
	C1495.438965,1516.093140 1493.553345,1514.644775 1493.697998,1510.801392 
	C1493.772827,1508.805786 1493.657227,1506.803589 1493.657104,1504.804443 
	C1493.653442,1465.814819 1493.654297,1426.825317 1493.654419,1387.835693 
	C1493.654419,1387.169189 1493.649536,1386.502686 1493.657349,1385.836304 
	C1493.772339,1376.107666 1493.775635,1375.920166 1503.584229,1376.058716 
	C1527.551636,1376.397095 1551.548096,1374.925659 1575.485840,1377.140381 
	C1592.847290,1378.746338 1606.979248,1386.390625 1612.100830,1403.438843 
	C1620.573120,1431.641479 1609.569824,1455.984253 1578.374023,1461.958374 
	C1563.588257,1464.789917 1548.518311,1464.248413 1533.546753,1463.937744 
	C1527.670532,1463.815918 1525.787598,1466.293091 1526.357910,1472.573486 
z"/>
<path fill="#3B9768" opacity="1.000000" stroke="none" 
	d="
M1658.325684,1867.460938 
	C1674.390259,1863.757446 1689.581665,1858.457031 1705.688110,1857.733643 
	C1707.665894,1857.644897 1709.669678,1857.297974 1711.615112,1857.505371 
	C1715.715088,1857.942871 1718.201294,1859.881348 1718.416870,1864.522827 
	C1718.735474,1871.382935 1717.481934,1877.671997 1713.917480,1883.614136 
	C1707.055298,1895.053955 1698.454224,1905.139771 1690.727051,1914.936279 
	C1688.445312,1915.674561 1688.007202,1914.535156 1687.860596,1913.690430 
	C1687.324829,1910.604248 1685.140991,1910.057129 1682.732300,1910.552490 
	C1680.122925,1911.089111 1680.398193,1913.578979 1680.614624,1915.417358 
	C1682.011353,1927.285645 1683.702148,1939.120117 1685.040771,1950.994385 
	C1687.235962,1970.469238 1690.707764,1989.829468 1690.412842,2009.537598 
	C1690.308350,2016.520508 1689.581787,2023.313599 1686.130737,2029.622192 
	C1682.780762,2028.604736 1683.657959,2026.202515 1683.690430,2024.601318 
	C1684.163940,2001.210693 1679.226440,1978.329102 1677.067139,1955.192627 
	C1675.620605,1939.691406 1673.781128,1924.203125 1672.227783,1908.697021 
	C1671.896484,1905.391235 1672.352783,1901.672241 1670.969849,1898.873169 
	C1667.736084,1892.327759 1669.479248,1886.761963 1673.041382,1880.072998 
	C1680.084106,1888.782593 1681.884033,1899.651855 1688.541382,1909.546509 
	C1696.014771,1898.909058 1703.102783,1889.447998 1709.456299,1879.517090 
	C1712.740356,1874.384277 1710.833252,1871.751099 1704.401367,1871.304810 
	C1699.051514,1870.933472 1693.795288,1871.896729 1688.576660,1873.035278 
	C1650.241943,1881.399536 1614.123169,1895.639282 1579.606323,1914.122681 
	C1577.849365,1915.063477 1576.134644,1916.107666 1574.498291,1917.244629 
	C1567.606567,1922.033569 1567.798584,1924.538818 1575.272339,1928.814087 
	C1577.001953,1929.803589 1578.644653,1930.943604 1580.352905,1931.972046 
	C1581.519165,1932.674194 1583.144897,1934.212891 1582.219238,1934.876343 
	C1576.412354,1939.039429 1582.713379,1940.480469 1584.140625,1941.638184 
	C1591.886353,1947.921265 1600.051758,1953.686523 1608.064453,1959.641235 
	C1613.945068,1964.011597 1619.717651,1968.491699 1624.859985,1973.763672 
	C1634.312012,1983.453491 1634.541016,1999.969971 1624.646973,2009.329102 
	C1616.867188,2016.688232 1607.784180,2022.223145 1597.613281,2025.953003 
	C1588.477295,2029.303467 1580.625488,2027.562988 1573.825439,2020.837402 
	C1572.670654,2019.695312 1572.121094,2017.941650 1570.495850,2015.058838 
	C1565.090820,2023.380249 1559.298218,2027.473511 1551.592529,2028.008057 
	C1548.477051,2028.224121 1547.809937,2030.112305 1547.796997,2032.698486 
	C1547.788574,2034.363892 1547.866943,2036.044189 1547.679565,2037.691895 
	C1546.796753,2045.454590 1544.531494,2052.355957 1538.349121,2057.951172 
	C1524.499023,2070.486328 1509.491821,2080.443359 1490.425415,2082.770020 
	C1476.696533,2084.445068 1467.204956,2078.273438 1465.075073,2064.939941 
	C1462.614746,2049.538330 1464.322021,2034.426514 1471.385376,2020.224609 
	C1472.109741,2018.768555 1472.678589,2017.139160 1475.304077,2016.490234 
	C1477.274536,2020.129395 1474.804077,2023.262817 1473.710205,2026.308838 
	C1470.625488,2034.898315 1468.865112,2043.604858 1470.412964,2052.726807 
	C1472.323486,2063.987305 1477.156006,2067.815186 1488.703247,2068.036133 
	C1494.498291,2068.147217 1499.991455,2066.997314 1505.281372,2065.000244 
	C1517.537842,2060.373291 1528.731934,2053.866943 1538.159912,2044.677612 
	C1542.982788,2039.976807 1543.268188,2037.414673 1540.438965,2031.318848 
	C1539.322998,2028.914307 1538.155884,2026.409546 1536.459839,2024.421143 
	C1531.150757,2018.196411 1532.211914,2011.938721 1535.837646,2004.012817 
	C1541.089111,2012.974243 1548.579590,2013.329590 1556.921997,2012.970825 
	C1566.716553,2012.549438 1567.116211,2002.405151 1573.055298,1998.562866 
	C1576.547485,1999.395996 1574.640503,2001.913330 1575.238403,2003.527710 
	C1577.841553,2010.557617 1585.666626,2014.302856 1594.288574,2012.293457 
	C1606.877197,2009.359497 1617.267822,2002.303589 1627.979858,1994.065552 
	C1624.669189,1989.303589 1620.807739,1985.882324 1616.773804,1982.554321 
	C1602.664429,1970.914307 1587.653687,1960.379028 1574.246704,1947.880127 
	C1572.306763,1946.071655 1570.400024,1944.222412 1568.559326,1942.313599 
	C1558.103394,1931.469971 1559.556763,1924.534424 1565.968628,1912.506226 
	C1570.171753,1904.622070 1568.846680,1899.694336 1564.429199,1893.781128 
	C1563.634766,1892.717773 1562.740234,1891.723755 1561.839233,1890.746338 
	C1560.063354,1888.819702 1560.847412,1886.913330 1562.215454,1885.405640 
	C1564.122070,1883.304565 1565.789551,1884.890381 1567.249023,1886.284546 
	C1572.108276,1890.926392 1573.184082,1897.247437 1574.639771,1904.671265 
	C1601.616821,1889.575562 1628.856934,1876.654785 1658.325684,1867.460938 
z"/>
<path fill="#3E9C6C" opacity="1.000000" stroke="none" 
	d="
M561.698120,1457.105469 
	C547.417603,1457.113159 534.091858,1457.002563 520.769714,1457.172607 
	C512.643066,1457.276367 512.472229,1457.504639 512.400757,1465.844727 
	C512.280884,1479.834229 512.436218,1493.825928 512.322754,1507.815552 
	C512.257507,1515.857544 512.122681,1515.907593 503.855835,1516.020386 
	C497.861145,1516.102173 491.853485,1515.801514 485.871796,1516.090332 
	C480.919464,1516.329346 479.309814,1514.057861 479.650360,1509.532715 
	C479.774933,1507.877197 479.645325,1506.203369 479.645264,1504.537842 
	C479.643799,1465.564453 479.643829,1426.591064 479.645325,1387.617676 
	C479.645386,1385.952148 479.807251,1384.272461 479.644989,1382.623779 
	C479.112244,1377.210449 481.892334,1375.933838 486.785187,1375.954956 
	C518.429626,1376.092041 550.075195,1376.079102 581.719849,1375.969971 
	C586.197998,1375.954468 588.452576,1377.178833 588.383362,1382.114624 
	C588.064087,1404.855347 591.061768,1400.762329 570.423401,1401.072388 
	C554.104797,1401.317749 537.779053,1401.041870 521.457825,1401.169312 
	C512.668396,1401.237915 512.547424,1401.483032 512.383972,1410.162476 
	C512.296143,1414.824341 512.288940,1419.490967 512.386658,1424.152344 
	C512.566711,1432.744873 512.646118,1432.930664 521.655518,1433.015137 
	C535.977844,1433.149414 550.302734,1433.125244 564.625793,1433.046875 
	C580.818237,1432.958496 577.336182,1434.432251 577.683105,1446.063721 
	C577.722778,1447.394897 577.561646,1448.740356 577.695068,1450.058716 
	C578.228821,1455.333496 575.589111,1457.281616 570.647705,1457.085205 
	C567.987732,1456.979614 565.319153,1457.091553 561.698120,1457.105469 
z"/>
<path fill="#3D9A6B" opacity="1.000000" stroke="none" 
	d="
M1800.000488,1375.999146 
	C1825.639282,1376.000122 1850.278442,1375.957886 1874.917114,1376.025757 
	C1883.535278,1376.049438 1883.739868,1376.175171 1883.659790,1384.996826 
	C1883.503174,1402.278076 1886.326538,1401.061401 1867.786255,1401.142456 
	C1860.128418,1401.176025 1852.468140,1401.293823 1844.813232,1401.149780 
	C1839.915039,1401.057617 1837.457886,1402.738525 1837.664551,1408.069824 
	C1837.947876,1415.383545 1837.710693,1422.717041 1837.709229,1430.042114 
	C1837.704102,1455.679932 1837.745728,1481.317871 1837.680542,1506.955566 
	C1837.657837,1515.871460 1837.540039,1515.914917 1829.015381,1516.035278 
	C1823.356323,1516.115356 1817.692749,1516.146484 1812.035156,1516.023071 
	C1804.549805,1515.859741 1804.360474,1515.786011 1804.339233,1507.997559 
	C1804.254639,1477.032593 1804.360962,1446.067139 1804.269897,1415.102173 
	C1804.226685,1400.403076 1806.118896,1401.232422 1790.242065,1401.150024 
	C1781.585571,1401.104980 1772.928711,1401.093384 1764.272095,1401.071045 
	C1760.250732,1401.060669 1758.571411,1399.282593 1758.231445,1395.039917 
	C1756.704834,1375.989136 1756.575195,1375.999390 1776.026367,1375.999146 
	C1783.684448,1375.999023 1791.342407,1375.999146 1800.000488,1375.999146 
z"/>
<path fill="#3E9C6C" opacity="1.000000" stroke="none" 
	d="
M2136.074219,1516.040161 
	C2130.096436,1516.030029 2125.100830,1515.880249 2120.116699,1516.051758 
	C2115.776855,1516.201172 2114.257080,1514.212036 2114.306152,1510.057617 
	C2114.427979,1499.745239 2114.318359,1489.430176 2114.316895,1479.116211 
	C2114.312500,1449.172363 2114.314209,1419.228394 2114.318359,1389.284546 
	C2114.318604,1386.955811 2114.402100,1384.626221 2114.364014,1382.298462 
	C2114.311279,1379.079224 2115.759033,1377.244507 2119.051758,1377.227539 
	C2127.033936,1377.186157 2135.017090,1377.185791 2142.999268,1377.231689 
	C2146.316650,1377.250854 2147.697510,1379.146484 2147.642334,1382.343018 
	C2147.602051,1384.670654 2147.686279,1387.000366 2147.686523,1389.329102 
	C2147.690674,1418.940308 2147.689209,1448.551514 2147.690674,1478.162720 
	C2147.690674,1480.491699 2147.866211,1482.833740 2147.678223,1485.146851 
	C2147.265381,1490.225220 2149.311035,1492.201904 2154.540771,1492.090454 
	C2167.177979,1491.821167 2179.824707,1492.009644 2192.467773,1492.016479 
	C2201.783691,1492.021484 2211.101562,1492.152344 2220.414307,1491.984497 
	C2224.652832,1491.908203 2226.095459,1493.584229 2226.409668,1497.797607 
	C2227.771240,1516.048340 2227.895752,1516.039551 2209.925293,1516.039917 
	C2185.637451,1516.040527 2161.349609,1516.040161 2136.074219,1516.040161 
z"/>
<path fill="#3C9869" opacity="1.000000" stroke="none" 
	d="
M1109.829590,2022.652710 
	C1105.183716,2016.408936 1108.169922,2010.808594 1108.935669,2005.152344 
	C1110.073364,2005.268799 1111.059448,2005.111572 1111.244995,2005.426270 
	C1116.476440,2014.296143 1124.832275,2013.886475 1133.213257,2012.560181 
	C1142.406860,2011.105469 1151.107666,2007.866211 1161.588135,2003.617798 
	C1150.697144,2000.017944 1141.171997,1998.759155 1131.706055,1997.281738 
	C1130.069824,1997.026367 1128.356201,1997.252441 1126.725586,1996.977295 
	C1121.976929,1996.175781 1120.512329,1993.753784 1122.493286,1989.239136 
	C1124.517212,1984.626587 1127.647705,1980.798218 1131.770630,1977.707397 
	C1140.373535,1971.257690 1149.858276,1966.552979 1159.793335,1962.579346 
	C1166.754517,1959.795166 1166.689819,1959.633545 1165.213867,1952.619141 
	C1163.534302,1944.636841 1165.153687,1939.146729 1170.414307,1935.845459 
	C1176.483643,1932.036377 1181.960205,1934.255615 1186.987183,1938.062622 
	C1190.155518,1940.462158 1193.201050,1943.104980 1195.925537,1945.993530 
	C1202.569946,1953.038452 1199.936890,1962.332642 1190.728394,1965.448486 
	C1185.883423,1967.087891 1180.219604,1966.641357 1176.599731,1971.578003 
	C1174.877563,1973.926514 1172.643677,1970.229004 1170.216675,1971.126831 
	C1161.281616,1974.432007 1152.096313,1977.153442 1144.429688,1983.030151 
	C1145.692261,1985.716064 1147.797485,1985.632202 1149.730347,1986.083008 
	C1169.556396,1990.706909 1189.720459,1992.723999 1209.983887,1993.989136 
	C1212.924805,1994.172729 1216.438843,1993.568237 1216.194092,1998.230835 
	C1215.981934,2002.271118 1215.443359,2006.273926 1210.786011,2007.810059 
	C1209.868408,2008.112671 1208.802612,2008.071655 1207.811768,2008.030151 
	C1188.001099,2007.202026 1169.812134,2013.709717 1151.744629,2020.577515 
	C1143.636719,2023.659302 1135.560913,2026.737061 1126.929077,2027.947754 
	C1124.519531,2028.285645 1122.152344,2028.283325 1122.423706,2031.688232 
	C1123.971802,2051.106689 1110.805664,2060.967529 1097.061401,2070.226318 
	C1087.018677,2076.991699 1076.011230,2081.577637 1063.798340,2082.864014 
	C1050.866943,2084.225586 1042.370239,2078.539062 1039.666748,2065.966797 
	C1036.181152,2049.756836 1039.152710,2034.285156 1045.966064,2019.405151 
	C1046.232300,2018.823853 1046.717773,2018.282227 1047.230225,2017.891357 
	C1047.727295,2017.512085 1048.390747,2017.350952 1049.147827,2017.021484 
	C1051.340210,2019.987427 1049.216064,2022.584106 1048.308960,2025.150879 
	C1045.506592,2033.080566 1043.901611,2041.150513 1044.386353,2049.613281 
	C1045.113159,2062.299316 1051.339844,2068.546631 1064.069336,2067.891846 
	C1084.125000,2066.860352 1099.854004,2056.655029 1113.809814,2043.114380 
	C1116.909302,2040.107056 1116.837158,2036.525269 1115.314575,2032.986206 
	C1113.875488,2029.641724 1111.922363,2026.518188 1109.829590,2022.652710 
z"/>
<path fill="#3D9A6B" opacity="1.000000" stroke="none" 
	d="
M1704.585693,1377.359131 
	C1705.358643,1381.716797 1705.676758,1385.367920 1705.680176,1389.019165 
	C1705.716797,1426.999512 1705.703491,1464.979736 1705.701416,1502.960083 
	C1705.701294,1505.292114 1705.578369,1507.629272 1705.691528,1509.955200 
	C1705.889038,1514.010132 1704.442261,1516.175171 1699.994629,1516.068970 
	C1692.669434,1515.893799 1685.333862,1515.894043 1678.008667,1516.068970 
	C1673.569580,1516.174805 1672.103027,1514.028687 1672.303589,1509.964478 
	C1672.418335,1507.638672 1672.294189,1505.301392 1672.294067,1502.969360 
	C1672.291992,1464.989136 1672.291870,1427.008789 1672.294067,1389.028564 
	C1672.294189,1386.696533 1672.422241,1384.359009 1672.304688,1382.033569 
	C1672.096802,1377.919189 1673.683716,1375.817749 1678.071167,1375.999268 
	C1686.703979,1376.356567 1695.373535,1375.314209 1704.585693,1377.359131 
z"/>
<path fill="#3F9E6D" opacity="1.000000" stroke="none" 
	d="
M416.341888,1400.036621 
	C416.341797,1434.970825 416.343140,1468.912476 416.338928,1502.854248 
	C416.338593,1505.516113 416.213959,1508.180542 416.299072,1510.839111 
	C416.422943,1514.706665 414.493866,1516.084717 410.813232,1516.025635 
	C403.494568,1515.908203 396.171112,1515.886963 388.853027,1516.017700 
	C384.885376,1516.088379 383.590027,1514.110962 383.687805,1510.502441 
	C383.768890,1507.510254 383.665100,1504.513306 383.664856,1501.518555 
	C383.661987,1464.249268 383.662842,1426.979858 383.663513,1389.710571 
	C383.663544,1387.713989 383.617462,1385.715820 383.683838,1383.721313 
	C383.932709,1376.242065 383.945862,1376.185059 391.691010,1376.051758 
	C397.346283,1375.954346 403.006500,1375.939697 408.661011,1376.056885 
	C416.086731,1376.210815 416.140656,1376.280762 416.312042,1384.070435 
	C416.421814,1389.059448 416.338593,1394.052856 416.341888,1400.036621 
z"/>
<path fill="#3C9769" opacity="1.000000" stroke="none" 
	d="
M1425.850098,2019.661499 
	C1419.893188,2022.383057 1415.452393,2019.627808 1411.086792,2017.330933 
	C1407.321899,2015.350220 1403.839844,2012.831299 1400.214111,2010.538452 
	C1396.970703,2012.299072 1396.024780,2015.735840 1393.980591,2018.254883 
	C1388.041382,2025.572754 1380.829346,2029.026123 1371.243896,2027.328979 
	C1362.694702,2025.815308 1362.193970,2026.045898 1362.516724,2034.865234 
	C1362.946289,2046.597046 1358.392090,2055.329590 1349.038574,2062.155273 
	C1335.007080,2072.394287 1320.426758,2081.663574 1304.048340,2087.630859 
	C1294.309692,2091.179199 1284.268188,2093.349854 1273.708984,2091.188477 
	C1257.642456,2087.899658 1246.990601,2077.534668 1243.886963,2061.576172 
	C1242.100830,2052.392822 1241.331665,2043.197876 1243.375732,2033.882446 
	C1244.137451,2030.410767 1243.960205,2026.733276 1244.219482,2023.030518 
	C1228.719116,2025.581543 1225.958740,2023.031494 1227.758057,2007.835693 
	C1228.760132,1999.371582 1232.684326,1992.195801 1239.106201,1984.985474 
	C1240.153320,1990.223633 1237.377930,1993.364136 1236.434814,1996.890381 
	C1236.005127,1998.496826 1235.320679,2000.036133 1234.906616,2001.645630 
	C1233.838501,2005.795166 1231.817505,2010.560181 1236.015869,2013.642456 
	C1240.550049,2016.971313 1242.581543,2010.866699 1245.967285,2009.641602 
	C1251.220337,2014.223389 1250.727539,2019.765625 1249.271851,2025.731812 
	C1247.198608,2034.229858 1246.927124,2042.907104 1248.698120,2051.473633 
	C1251.631958,2065.666992 1260.991699,2073.908447 1275.373657,2075.967529 
	C1285.518555,2077.419922 1295.278564,2076.051514 1304.773560,2072.624512 
	C1321.812866,2066.473877 1337.290039,2057.502686 1351.770020,2046.624390 
	C1356.427979,2043.125000 1357.856812,2039.613525 1356.462524,2033.882324 
	C1355.102783,2028.293579 1353.220703,2023.013916 1350.362305,2018.156006 
	C1346.583008,2011.732666 1347.636963,2005.588989 1349.993774,1999.171509 
	C1353.709229,1999.145142 1354.473145,2002.158691 1355.992920,2004.029419 
	C1366.278442,2016.690308 1386.090576,2016.630615 1395.302002,2003.343140 
	C1399.512695,1997.269165 1404.849731,1992.311768 1409.607178,1986.821533 
	C1414.860962,1980.758545 1424.017456,1981.839233 1427.163574,1988.958252 
	C1431.547852,1998.878784 1433.236816,2009.337402 1425.850098,2019.661499 
z"/>
<path fill="#3C9769" opacity="1.000000" stroke="none" 
	d="
M739.343628,1998.448730 
	C730.696533,1989.237915 730.342957,1979.406494 735.455750,1969.351562 
	C740.583801,1959.266357 748.906494,1954.321655 760.625916,1954.908691 
	C770.211426,1955.389160 778.910828,1957.336182 785.980469,1964.397705 
	C783.745789,1968.063965 780.891296,1966.105957 778.675354,1965.684448 
	C766.632019,1963.393433 755.502319,1966.666626 744.688904,1971.210938 
	C738.117493,1973.972656 737.416382,1976.986694 741.619141,1982.794312 
	C747.225281,1990.541382 754.590332,1996.017090 763.891235,1998.845215 
	C768.958557,2000.385986 773.585815,2000.186401 778.321167,1997.650269 
	C785.657593,1993.721436 793.115845,1990.009033 800.627930,1986.426025 
	C802.923645,1985.330933 805.031799,1983.215332 809.133179,1984.415527 
	C807.690918,1989.842651 805.611206,1994.879761 800.420471,1997.566650 
	C782.698303,2006.739868 765.388550,2016.779907 746.650208,2023.875366 
	C744.478333,2024.697754 742.241577,2025.381470 739.990967,2025.958130 
	C722.251709,2030.502808 709.299377,2023.053711 704.366882,2005.083008 
	C701.634949,1995.129395 700.709106,1984.825806 699.599182,1974.575439 
	C697.454956,1954.772095 695.765625,1934.896240 691.891479,1915.331543 
	C690.474670,1908.176880 688.335632,1901.134277 686.078003,1894.186035 
	C683.959595,1887.666260 685.270203,1882.002319 688.911011,1876.093262 
	C693.439392,1879.256836 694.328674,1883.970825 695.662964,1888.279907 
	C701.696167,1907.763672 704.223450,1927.898438 706.320801,1948.088013 
	C707.624451,1960.636230 708.638184,1973.214355 709.800964,1985.777344 
	C709.923523,1987.101562 710.066711,1988.440186 710.381165,1989.727905 
	C715.391602,2010.244019 725.357605,2019.059937 750.821106,2009.085205 
	C747.038879,2005.591064 743.449219,2002.274780 739.343628,1998.448730 
z"/>
<path fill="#3C9769" opacity="1.000000" stroke="none" 
	d="
M656.716370,2007.349854 
	C661.183655,2004.996826 663.047241,2002.736816 659.753174,1998.484863 
	C654.261230,1991.396118 647.951233,1984.916870 643.540894,1977.005737 
	C639.961853,1970.585449 636.314636,1964.201782 641.185547,1956.234741 
	C646.244202,1957.735474 649.918518,1961.625977 654.151428,1964.543945 
	C655.227722,1965.285645 656.683655,1966.879761 655.788147,1967.800659 
	C650.075195,1973.677368 656.643799,1976.375977 659.059998,1979.475586 
	C672.030823,1996.115112 670.891113,2010.106445 655.176575,2021.295654 
	C639.624390,2032.369263 619.735229,2029.093628 609.543152,2013.751465 
	C608.626587,2012.371582 607.926941,2010.848389 607.113647,2009.399048 
	C602.291260,2000.804077 600.458862,2000.406738 592.736572,2006.223145 
	C587.552795,2010.127686 583.920288,2015.146362 581.521423,2021.173218 
	C579.064636,2027.346191 576.763733,2033.627441 573.712097,2039.506958 
	C568.725159,2049.114990 560.390198,2049.847656 552.790588,2041.936279 
	C549.693909,2038.712402 547.914124,2034.831299 546.325928,2030.811523 
	C542.108582,2020.137817 542.512939,2000.261108 547.255737,1990.684082 
	C549.256958,1996.839722 548.345215,2002.858398 548.328674,2008.756470 
	C548.308533,2015.934204 549.954041,2022.677979 553.172180,2028.922607 
	C557.717773,2037.742798 564.666565,2037.958130 569.579285,2029.429077 
	C572.050537,2025.138672 573.864563,2020.410522 575.509399,2015.716797 
	C577.974854,2008.680908 582.210815,2002.724609 586.438354,1996.768188 
	C588.762695,1993.493286 591.947876,1990.947388 595.518982,1989.073975 
	C602.172791,1985.583374 606.521851,1986.711548 610.844727,1992.896606 
	C611.986328,1994.529663 612.973694,1996.270508 614.032715,1997.961182 
	C623.314941,2012.779785 635.510071,2016.663452 651.560913,2009.885376 
	C653.090820,2009.239380 654.556396,2008.441040 656.716370,2007.349854 
z"/>
<path fill="#3C9769" opacity="1.000000" stroke="none" 
	d="
M963.209839,1995.490234 
	C963.470520,1998.599121 963.080017,2001.227173 962.884949,2003.869507 
	C962.182068,2013.389526 968.249695,2018.112915 977.270264,2015.050293 
	C982.016357,2013.438965 986.357056,2011.002319 990.642822,2008.409180 
	C1002.894653,2000.995361 1015.017212,1993.378174 1026.521484,1984.848145 
	C1032.480591,1980.429810 1032.392822,1977.718140 1026.299683,1973.468628 
	C1022.493469,1970.813965 1018.469177,1968.260376 1014.190674,1966.534058 
	C1001.386658,1961.367676 992.375610,1951.500854 982.892151,1942.175903 
	C978.005066,1937.370361 980.859253,1931.772461 980.829285,1925.463989 
	C987.207336,1928.571533 992.760803,1931.270142 998.306335,1933.984985 
	C999.531372,1934.584595 1001.048767,1936.188477 1000.176636,1936.846436 
	C992.256348,1942.824219 1001.071411,1943.719482 1003.167175,1945.031250 
	C1010.195190,1949.430176 1017.539429,1953.510254 1025.186401,1956.695068 
	C1041.598145,1963.530151 1039.966187,1988.848267 1029.172119,1996.236084 
	C1014.625122,2006.192383 1000.052063,2016.111084 985.432678,2025.960449 
	C983.807800,2027.055054 981.843140,2027.690308 979.975281,2028.371826 
	C965.764771,2033.556030 958.325745,2028.525635 957.669312,2013.203247 
	C957.440735,2007.867920 957.706116,2002.541138 959.809204,1996.729492 
	C960.764771,1995.262085 961.621033,1994.922974 963.209839,1995.490234 
z"/>
<path fill="#3B9768" opacity="1.000000" stroke="none" 
	d="
M896.652100,2005.526245 
	C884.635803,2008.202271 876.279907,2015.313110 868.278015,2022.891357 
	C858.616150,2032.041626 849.137024,2041.384277 839.513733,2050.575684 
	C837.600708,2052.402832 835.499390,2054.080566 833.300354,2055.551270 
	C826.848694,2059.865967 820.112061,2061.817627 812.702698,2057.710205 
	C805.477844,2053.705078 802.222534,2046.867188 802.599976,2039.427002 
	C803.295654,2025.714111 806.993591,2012.596802 815.165649,2001.160278 
	C815.479309,2000.721313 816.328064,2000.664795 817.413635,2000.239746 
	C818.625305,2004.191040 816.344971,2007.209839 814.878967,2010.244019 
	C811.961914,2016.281494 810.077209,2022.641235 808.638306,2029.127686 
	C807.997375,2032.016724 807.704102,2035.090942 807.901001,2038.037720 
	C808.485840,2046.789062 813.056213,2049.920898 821.406555,2047.097534 
	C828.785217,2044.602905 834.812439,2039.751587 840.394836,2034.489136 
	C850.319519,2025.133545 860.060974,2015.583374 869.855164,2006.089844 
	C877.933044,1998.260132 887.302246,1992.925903 898.407837,1990.602051 
	C903.193604,1989.600830 907.725525,1989.938843 912.049011,1991.958252 
	C919.188904,1995.293335 921.713806,2003.983032 917.588867,2010.629272 
	C916.051453,2013.106567 914.140808,2012.277832 912.793091,2010.530396 
	C908.794250,2005.346191 903.280029,2004.997681 896.652100,2005.526245 
z"/>
<path fill="#3D9A6B" opacity="1.000000" stroke="none" 
	d="
M746.060303,1686.164062 
	C738.400696,1687.922485 732.082214,1687.102905 727.606567,1680.911255 
	C723.073120,1674.639771 723.846069,1665.966675 729.133911,1660.973145 
	C734.546509,1655.861938 744.362366,1655.572876 750.163574,1660.353638 
	C756.313843,1665.421997 757.498535,1674.187256 752.838196,1680.919800 
	C751.313843,1683.121948 749.238892,1684.790405 746.060303,1686.164062 
z"/>
<path fill="#3C9869" opacity="1.000000" stroke="none" 
	d="
M788.812744,1667.605225 
	C789.866821,1680.254028 784.526367,1687.066772 774.415039,1687.087524 
	C766.597229,1687.103638 761.776184,1683.723755 759.459839,1676.603027 
	C757.483154,1670.526855 759.695984,1663.586670 764.781067,1659.912720 
	C770.269287,1655.947876 779.000793,1656.163818 784.229919,1660.397217 
	C786.344849,1662.109253 787.891479,1664.196411 788.812744,1667.605225 
z"/>
<path fill="#3D9A6B" opacity="1.000000" stroke="none" 
	d="
M538.197998,1672.666870 
	C537.723328,1684.663940 533.387878,1690.248779 524.708679,1690.982910 
	C517.701294,1691.575684 510.536652,1686.875366 508.468994,1680.328979 
	C506.172485,1673.058105 509.460449,1665.234863 516.267944,1661.772583 
	C522.872742,1658.413452 530.420837,1659.901733 535.158813,1665.644409 
	C536.628235,1667.425415 537.890991,1669.419312 538.197998,1672.666870 
z"/>
<path fill="#3D9A6B" opacity="1.000000" stroke="none" 
	d="
M1155.570068,1660.062012 
	C1167.236450,1664.717163 1171.447876,1671.023560 1169.229126,1679.366943 
	C1167.427734,1686.140259 1161.540283,1690.893311 1154.775024,1691.035767 
	C1147.625244,1691.186157 1141.225708,1686.434814 1139.131226,1679.419922 
	C1137.262451,1673.161621 1140.208862,1665.936890 1146.246460,1662.363037 
	C1148.839844,1660.827759 1151.657593,1659.781982 1155.570068,1660.062012 
z"/>
<path fill="#3D9A6B" opacity="1.000000" stroke="none" 
	d="
M1388.675293,1624.239990 
	C1401.447388,1625.607788 1407.423828,1631.820435 1406.287598,1641.601196 
	C1405.497192,1648.406372 1401.138062,1653.246826 1394.517456,1654.671265 
	C1387.657349,1656.147217 1381.362915,1653.282227 1377.646484,1646.992676 
	C1374.591431,1641.822388 1375.062866,1635.010864 1378.881226,1630.211182 
	C1381.221680,1627.269287 1384.253662,1625.332886 1388.675293,1624.239990 
z"/>
<path fill="#3D9A6B" opacity="1.000000" stroke="none" 
	d="
M1423.043091,1669.241211 
	C1423.213379,1681.600464 1418.872803,1687.270020 1409.486450,1688.003052 
	C1401.861450,1688.598511 1395.673584,1684.651367 1393.231201,1677.633911 
	C1391.003296,1671.232788 1393.555908,1663.919800 1399.307007,1660.226074 
	C1405.096802,1656.507446 1413.639771,1657.209961 1418.721313,1661.811523 
	C1420.743896,1663.643066 1422.129272,1665.854248 1423.043091,1669.241211 
z"/>
<path fill="#3D9A6B" opacity="1.000000" stroke="none" 
	d="
M1358.405518,1672.152710 
	C1359.487427,1665.425415 1362.476196,1660.774048 1368.157471,1658.408813 
	C1376.157837,1655.078125 1385.312988,1659.255371 1388.667236,1667.497070 
	C1391.559937,1674.604980 1387.891846,1683.414185 1380.660645,1686.725586 
	C1372.695435,1690.373047 1363.495972,1686.825317 1359.985718,1678.635498 
	C1359.212036,1676.830444 1358.903198,1674.826172 1358.405518,1672.152710 
z"/>
<path fill="#3E9B6B" opacity="1.000000" stroke="none" 
	d="
M742.215027,1635.046875 
	C749.151306,1622.359131 759.894226,1619.725952 767.926270,1628.007446 
	C772.393616,1632.613403 773.744934,1639.763184 771.230896,1645.491211 
	C768.849854,1650.916382 763.273682,1654.204224 756.762329,1654.022461 
	C749.804443,1653.828247 744.847656,1650.212891 742.542847,1643.652832 
	C741.641968,1641.088745 741.452942,1638.481079 742.215027,1635.046875 
z"/>
<path fill="#3D9A6B" opacity="1.000000" stroke="none" 
	d="
M1508.203613,1690.037109 
	C1500.171509,1689.547607 1495.820923,1685.430054 1494.063354,1678.742676 
	C1491.970215,1670.778320 1496.463745,1662.798828 1503.886719,1660.487549 
	C1511.980347,1657.967529 1520.955200,1662.088623 1523.567139,1669.524536 
	C1526.358276,1677.470337 1522.652466,1686.067505 1514.846680,1689.221191 
	C1513.080933,1689.934570 1510.969116,1689.791504 1508.203613,1690.037109 
z"/>
<path fill="#3E9B6B" opacity="1.000000" stroke="none" 
	d="
M1556.868042,1667.962036 
	C1557.622681,1670.927490 1558.286133,1673.204590 1558.252075,1675.471191 
	C1558.148560,1682.364868 1554.019287,1687.870483 1547.954346,1689.645630 
	C1541.292969,1691.595215 1534.019043,1689.240479 1530.237671,1683.910278 
	C1526.699097,1678.922241 1526.764160,1671.198242 1530.386597,1666.243530 
	C1534.284180,1660.912476 1541.579102,1658.593750 1548.084717,1660.710815 
	C1551.646851,1661.870117 1554.589233,1663.905518 1556.868042,1667.962036 
z"/>
<path fill="#368B60" opacity="1.000000" stroke="none" 
	d="
M1629.168945,1929.837280 
	C1621.558960,1922.303345 1621.888184,1919.734375 1630.583130,1915.932861 
	C1635.493896,1913.785522 1640.572266,1912.145630 1646.056396,1913.500366 
	C1648.491333,1914.102051 1650.681641,1915.235962 1649.843384,1918.239502 
	C1649.197388,1920.553711 1647.038452,1921.103638 1644.995361,1920.390869 
	C1640.740723,1918.906494 1636.592163,1919.208374 1631.711060,1920.059570 
	C1633.906738,1925.321167 1638.723877,1925.429810 1642.289429,1927.221069 
	C1648.608765,1930.395630 1650.787842,1933.381714 1649.229858,1937.500122 
	C1647.484131,1942.114868 1642.972412,1943.883057 1636.678101,1942.031250 
	C1631.896240,1940.624390 1627.129395,1939.053955 1622.551636,1937.098022 
	C1617.802734,1935.069092 1614.440918,1931.767212 1614.850098,1925.319702 
	C1619.641113,1926.058838 1621.905273,1930.145630 1626.411621,1931.168823 
	C1627.765869,1930.646362 1628.678589,1930.408325 1629.168945,1929.837280 
z"/>
<path fill="#368B60" opacity="1.000000" stroke="none" 
	d="
M758.476318,2043.272217 
	C755.720154,2035.374268 759.619751,2026.787354 766.341614,2024.428711 
	C768.431763,2023.695190 770.523438,2024.022339 771.200378,2026.351074 
	C772.042664,2029.249023 771.242188,2032.998169 776.380554,2032.511108 
	C777.807007,2032.375854 777.640137,2034.533447 777.154663,2035.761108 
	C776.176331,2038.235352 774.839050,2040.413086 772.702026,2042.197510 
	C769.663818,2044.734497 766.713501,2047.440552 764.107117,2050.409424 
	C762.231812,2052.545654 759.210876,2055.056641 760.776062,2058.087158 
	C762.483826,2061.394287 766.427734,2060.841797 769.656616,2060.517334 
	C772.933411,2060.187744 776.174255,2059.473145 779.419006,2058.864258 
	C781.017761,2058.564453 782.584473,2057.812500 784.184448,2058.804443 
	C778.754944,2066.359619 766.366455,2070.027832 759.093384,2066.203613 
	C754.498657,2063.787598 755.637695,2059.681152 755.950684,2055.735107 
	C756.281250,2051.567627 760.817261,2048.504639 758.476318,2043.272217 
z"/>
<path fill="#399366" opacity="1.000000" stroke="none" 
	d="
M1268.836670,1997.769287 
	C1267.383667,2000.187622 1266.827393,2004.997070 1263.883545,1999.809814 
	C1262.447021,1997.278442 1262.135742,1994.133911 1261.063721,1991.364258 
	C1259.307739,1986.828491 1258.337280,1981.737671 1251.577393,1981.563721 
	C1249.078857,1981.499390 1246.594482,1978.827148 1246.791260,1975.995850 
	C1246.992798,1973.097290 1248.570557,1970.111938 1251.235962,1968.647949 
	C1253.881836,1967.194702 1256.401611,1968.932251 1258.458984,1970.640625 
	C1261.847778,1973.454956 1262.983765,1977.869263 1265.938354,1982.119019 
	C1269.575195,1978.390747 1269.455688,1973.435181 1271.626221,1969.664062 
	C1273.336304,1966.692749 1275.171509,1963.418335 1279.129517,1964.649292 
	C1282.980469,1965.846802 1284.793579,1969.162354 1284.210938,1973.293091 
	C1283.806763,1976.159546 1282.793091,1978.872070 1279.186523,1976.274170 
	C1275.568481,1973.668091 1274.450562,1976.081665 1273.696655,1978.849976 
	C1272.046265,1984.910767 1270.602417,1991.027710 1268.836670,1997.769287 
z"/>
<path fill="#399366" opacity="1.000000" stroke="none" 
	d="
M1012.490479,1907.253052 
	C1009.891113,1913.490479 1011.892639,1920.684937 1006.135559,1925.192871 
	C1003.115112,1922.791138 1003.463196,1919.513062 1002.501892,1916.886108 
	C1000.446838,1911.270020 999.385742,1905.330566 991.625732,1904.547607 
	C988.703430,1904.252808 987.586792,1901.284058 987.782776,1898.384033 
	C987.970154,1895.611450 989.236023,1893.184082 991.740295,1891.912598 
	C994.505737,1890.508301 996.686707,1892.111572 998.912720,1893.791870 
	C1002.744934,1896.684570 1003.530151,1901.645508 1006.935913,1905.792725 
	C1008.885681,1900.872192 1010.332947,1896.611084 1012.251709,1892.573975 
	C1013.730774,1889.462036 1016.159180,1886.783569 1020.067078,1888.025513 
	C1024.396362,1889.401489 1024.699341,1893.140991 1024.238892,1897.012329 
	C1024.070435,1898.427856 1023.143738,1900.235474 1022.053894,1899.684448 
	C1014.250916,1895.738403 1014.355469,1902.270508 1012.490479,1907.253052 
z"/>
<path fill="#368B60" opacity="1.000000" stroke="none" 
	d="
M554.033691,1928.461182 
	C555.690063,1919.073486 558.664551,1917.533813 565.815247,1921.794800 
	C568.986877,1923.684692 571.809814,1925.981323 573.305847,1929.502319 
	C575.192993,1933.943604 573.252625,1939.886108 569.252380,1939.744141 
	C560.564392,1939.435547 558.763489,1947.312134 552.061157,1951.195312 
	C559.769043,1954.069702 565.688721,1950.586792 573.958435,1950.374146 
	C565.523010,1957.412476 557.817200,1959.954712 549.014343,1959.102905 
	C544.898071,1958.704590 543.320435,1955.957520 544.685852,1952.092285 
	C545.701355,1949.217529 547.659729,1947.029175 550.253113,1945.311890 
	C552.698303,1943.692871 555.499390,1942.455078 557.571655,1939.180664 
	C554.245361,1936.804077 552.890747,1933.351685 554.033691,1928.461182 
z"/>
<path fill="#399366" opacity="1.000000" stroke="none" 
	d="
M1658.885742,1867.012817 
	C1658.730591,1866.465698 1658.797485,1865.628174 1658.416016,1865.273804 
	C1652.425049,1859.712524 1667.870483,1853.938599 1658.232666,1848.471436 
	C1656.891113,1840.611694 1662.559204,1836.499756 1667.163452,1831.836670 
	C1667.853516,1831.137817 1668.655884,1830.434448 1669.544434,1830.069336 
	C1671.930420,1829.089478 1674.638550,1827.093384 1676.872803,1829.642334 
	C1679.269043,1832.375977 1679.072266,1835.929443 1677.326660,1838.960815 
	C1675.913940,1841.413940 1674.033691,1840.004639 1672.316406,1838.790894 
	C1669.858398,1837.053467 1667.537354,1837.889038 1666.598755,1840.362427 
	C1665.242432,1843.937134 1668.432983,1844.827637 1670.856201,1845.695190 
	C1673.544556,1846.657471 1675.976685,1845.471313 1678.501953,1844.452637 
	C1681.486694,1843.248535 1683.891113,1840.550903 1687.770630,1840.752075 
	C1689.429810,1846.867432 1685.015869,1849.198364 1680.991333,1851.291870 
	C1673.296753,1855.293579 1665.738281,1859.423950 1659.104370,1866.281738 
	C1658.808228,1867.103638 1658.899292,1866.947021 1658.885742,1867.012817 
z"/>
<path fill="#399366" opacity="1.000000" stroke="none" 
	d="
M1562.916748,1965.342773 
	C1560.726929,1965.978271 1559.910889,1966.953247 1559.496216,1968.271851 
	C1558.150513,1972.551880 1556.337036,1975.408813 1550.989258,1972.917847 
	C1544.584839,1969.934570 1542.768921,1967.548950 1544.596069,1961.755981 
	C1545.793579,1957.959839 1547.184448,1954.711792 1544.759888,1950.590576 
	C1543.045044,1947.675659 1545.620239,1944.257812 1546.612183,1941.175537 
	C1547.307495,1939.014893 1548.930664,1938.380371 1551.290161,1939.395264 
	C1557.509888,1942.071167 1563.698975,1944.640259 1563.218506,1953.991455 
	C1570.286499,1958.107666 1566.770386,1961.628418 1562.916748,1965.342773 
z"/>
<path fill="#3B9768" opacity="1.000000" stroke="none" 
	d="
M671.805542,2050.064453 
	C668.047729,2056.481201 668.047729,2056.481201 657.752075,2052.208008 
	C657.275269,2052.583984 656.660400,2052.871338 656.346863,2053.354248 
	C654.530090,2056.152100 655.233826,2061.645752 650.353088,2061.066406 
	C646.578430,2060.618652 642.691101,2058.124268 641.060364,2054.285889 
	C639.301147,2050.145508 642.501831,2046.770752 644.231079,2043.323853 
	C644.838562,2042.112915 646.348022,2041.980591 647.658325,2042.883179 
	C649.822693,2044.374023 651.830322,2046.230347 654.830505,2046.097778 
	C655.216187,2045.691284 655.677917,2045.254883 656.081909,2044.770264 
	C658.188782,2042.244019 656.934204,2036.649292 662.163391,2037.159912 
	C665.408325,2037.476807 668.198059,2039.813354 670.706970,2041.998535 
	C673.074829,2044.061035 672.279419,2046.825806 671.805542,2050.064453 
z"/>
<path fill="#368B60" opacity="1.000000" stroke="none" 
	d="
M839.062683,1949.327148 
	C836.842529,1947.050171 835.528748,1945.258301 837.714905,1942.864380 
	C839.748718,1940.636841 841.657776,1941.321045 843.857849,1942.675903 
	C850.427917,1946.721436 854.373474,1955.825073 853.088684,1964.239624 
	C852.380981,1968.875000 850.734680,1973.166870 848.689941,1977.359985 
	C847.679565,1979.431885 846.894409,1981.640381 846.258362,1983.859131 
	C845.798096,1985.464600 845.875793,1987.176392 847.414856,1988.351807 
	C849.146179,1989.674316 850.503418,1988.598267 851.777771,1987.521362 
	C852.559326,1986.860840 853.334045,1986.390259 855.030457,1986.825439 
	C855.536743,1989.371826 853.891235,1991.450806 852.757812,1993.626709 
	C851.199280,1996.618896 848.388672,1996.189453 845.772217,1995.973633 
	C843.027039,1995.746948 842.022400,1993.766113 841.298462,1991.359619 
	C840.697449,1989.361450 840.881958,1987.534302 841.195312,1985.531494 
	C841.768982,1981.863525 842.857849,1978.374268 844.672363,1975.216431 
	C850.439880,1965.178833 848.256409,1956.877319 839.062683,1949.327148 
z"/>
<path fill="#368B60" opacity="1.000000" stroke="none" 
	d="
M1508.135498,1948.459717 
	C1512.817871,1956.174194 1512.755249,1963.530151 1509.818115,1971.027100 
	C1508.370361,1974.722412 1506.783447,1978.363037 1505.300049,1982.044800 
	C1504.387451,1984.310181 1504.025757,1986.734375 1506.127319,1988.414307 
	C1508.244995,1990.107056 1509.600830,1987.635864 1511.276001,1986.908325 
	C1511.816895,1986.673462 1512.466919,1986.689453 1513.300293,1986.552246 
	C1514.282471,1989.904785 1512.166992,1992.204346 1510.403931,1994.407959 
	C1508.483398,1996.808228 1505.606201,1996.327026 1503.021606,1995.779907 
	C1500.202393,1995.183105 1499.842041,1992.739990 1499.607178,1990.369873 
	C1499.061768,1984.866821 1500.614136,1979.781006 1503.353516,1975.176147 
	C1508.208252,1967.015503 1507.040894,1956.980103 1498.997559,1950.116577 
	C1497.115723,1948.510864 1492.679199,1947.212158 1495.884644,1943.318726 
	C1498.868652,1939.694214 1501.762207,1941.831909 1504.335815,1944.216064 
	C1505.546875,1945.337891 1506.607666,1946.622070 1508.135498,1948.459717 
z"/>
<path fill="#368B60" opacity="1.000000" stroke="none" 
	d="
M1074.065918,1984.952148 
	C1075.702515,1980.201904 1076.884766,1976.023315 1078.776611,1972.195557 
	C1082.548950,1964.563232 1080.773560,1958.188599 1075.159668,1952.396729 
	C1074.698242,1951.920654 1074.146362,1951.516968 1073.754517,1950.991577 
	C1071.954346,1948.577515 1067.119751,1946.836914 1070.326660,1943.035034 
	C1073.860962,1938.844482 1076.647827,1942.792603 1079.344238,1945.138184 
	C1086.566650,1951.420898 1086.925659,1959.556396 1085.040039,1967.944702 
	C1084.111206,1972.076660 1081.927734,1975.934082 1080.243774,1979.886719 
	C1079.072266,1982.636353 1077.284790,1985.555176 1080.059570,1988.102661 
	C1082.947388,1990.753784 1084.394287,1985.977661 1087.696411,1986.355347 
	C1088.053345,1991.004150 1086.337036,1994.466675 1081.730835,1995.866943 
	C1076.438232,1997.475464 1074.245239,1994.459717 1074.065918,1984.952148 
z"/>
<path fill="#368B60" opacity="1.000000" stroke="none" 
	d="
M1386.540405,2064.064941 
	C1384.596191,2063.814209 1381.602051,2063.721924 1384.738770,2061.918945 
	C1390.162964,2058.800537 1396.034058,2056.463379 1401.696411,2053.754150 
	C1409.793579,2049.880371 1417.853271,2045.950928 1421.801270,2037.060059 
	C1422.062134,2036.472412 1422.513306,2035.924561 1422.992798,2035.485718 
	C1425.589844,2033.108765 1428.054688,2029.199463 1432.100098,2032.477295 
	C1435.677246,2035.375366 1435.032959,2039.760620 1433.614990,2043.504028 
	C1432.393555,2046.728760 1429.575073,2046.302734 1426.963257,2044.848511 
	C1425.171387,2043.850830 1423.436035,2042.911133 1421.844482,2045.212158 
	C1413.464600,2057.328369 1400.788452,2061.552246 1386.540405,2064.064941 
z"/>
<path fill="#368B60" opacity="1.000000" stroke="none" 
	d="
M1193.599609,2020.855713 
	C1193.232056,2030.479004 1193.176392,2030.738892 1185.335083,2029.059814 
	C1182.737427,2028.503540 1181.835693,2029.454712 1180.566284,2031.044800 
	C1171.302979,2042.647583 1159.740356,2047.965210 1142.552124,2048.695068 
	C1143.421387,2045.492920 1146.581909,2045.489258 1148.775269,2044.363770 
	C1154.948242,2041.195801 1161.311646,2038.401367 1167.548462,2035.354004 
	C1172.682251,2032.845337 1177.183350,2029.656006 1179.830688,2024.260620 
	C1180.822998,2022.238159 1182.515015,2020.518066 1184.059692,2018.815918 
	C1187.755371,2014.743164 1190.862061,2015.584473 1193.599609,2020.855713 
z"/>
<path fill="#3B9768" opacity="1.000000" stroke="none" 
	d="
M1166.738525,2067.206055 
	C1163.907227,2065.775146 1161.884644,2064.248779 1162.621582,2061.611816 
	C1163.486938,2058.515625 1163.806274,2055.120117 1166.107910,2052.552490 
	C1166.316406,2052.319824 1166.630127,2052.145996 1166.928345,2052.035645 
	C1168.376831,2051.500488 1179.556274,2057.017090 1180.576294,2058.903564 
	C1182.791138,2063.000488 1180.406006,2066.470215 1178.706055,2069.894531 
	C1177.919922,2071.478271 1176.213501,2071.813232 1174.464478,2070.953369 
	C1172.113037,2069.797119 1169.732666,2068.699951 1166.738525,2067.206055 
z"/>
<path fill="#3B9768" opacity="1.000000" stroke="none" 
	d="
M585.850342,1966.285522 
	C588.515625,1970.040405 587.529358,1972.810669 586.322205,1975.627930 
	C584.983459,1978.751831 582.654602,1979.302002 579.847656,1978.047119 
	C577.744690,1977.106689 575.882629,1975.636841 573.799194,1974.641724 
	C568.956055,1972.328369 567.780334,1968.913696 570.380615,1964.225464 
	C571.478271,1962.246460 572.122314,1959.925293 574.296875,1958.543579 
	C578.516113,1960.089111 581.786560,1962.849731 585.850342,1966.285522 
z"/>
<path fill="#399366" opacity="1.000000" stroke="none" 
	d="
M587.171387,1967.614014 
	C586.513245,1967.174072 586.130371,1966.755981 586.055725,1966.636230 
	C587.736206,1965.985107 588.546692,1964.519043 589.343201,1963.065918 
	C593.787048,1954.958984 593.931702,1954.897949 600.837891,1958.602295 
	C606.968506,1961.890503 607.687622,1965.061157 604.470337,1971.608398 
	C602.938660,1974.725342 601.086487,1975.502441 598.199280,1973.945190 
	C594.701111,1972.058594 591.282593,1970.024414 587.171387,1967.614014 
z"/>
<path fill="#399366" opacity="1.000000" stroke="none" 
	d="
M1319.486572,1977.479004 
	C1318.198364,1982.033081 1317.609009,1986.348877 1311.638428,1984.485229 
	C1305.357544,1982.524658 1302.855835,1979.403564 1304.483521,1973.805176 
	C1305.226562,1971.249512 1304.627563,1966.857422 1308.480103,1966.774902 
	C1311.166870,1966.717163 1313.915405,1968.839844 1316.610107,1970.046875 
	C1319.575439,1971.375000 1319.832642,1973.972168 1319.486572,1977.479004 
z"/>
<path fill="#32835B" opacity="1.000000" stroke="none" 
	d="
M622.090332,1976.402588 
	C622.734192,1984.236938 622.734192,1984.236938 628.739319,1982.108276 
	C630.218811,1983.566895 629.515137,1985.078613 628.920654,1986.654175 
	C627.633484,1990.065308 626.791565,1994.372192 622.015564,1993.770020 
	C616.897095,1993.124512 615.998840,1988.179688 616.425964,1984.536987 
	C617.356201,1976.602295 617.731323,1968.151367 625.726440,1960.125854 
	C624.203308,1966.798218 623.194031,1971.219727 622.090332,1976.402588 
z"/>
<path fill="#3B9768" opacity="1.000000" stroke="none" 
	d="
M1562.555176,1966.061279 
	C1562.540283,1962.302734 1562.987549,1959.058472 1563.475098,1955.312866 
	C1567.717529,1953.311035 1575.689209,1955.729370 1577.485596,1959.049683 
	C1578.829712,1961.534058 1576.811035,1968.815552 1574.243408,1970.830322 
	C1573.074463,1971.747559 1571.899780,1971.753540 1570.654297,1971.024292 
	C1568.112061,1969.535767 1565.563477,1968.057983 1562.555176,1966.061279 
z"/>
<path fill="#368B60" opacity="1.000000" stroke="none" 
	d="
M702.205200,1869.763672 
	C702.999390,1867.144287 703.979553,1865.063721 706.425781,1866.057861 
	C715.168884,1869.610474 718.887695,1886.162354 712.236877,1895.909424 
	C713.633301,1884.815674 708.054260,1877.605835 702.205200,1869.763672 
z"/>
<path fill="#32835B" opacity="1.000000" stroke="none" 
	d="
M779.624878,1936.072510 
	C780.348694,1932.479004 781.346191,1929.861572 784.006409,1927.739868 
	C785.333374,1930.952637 783.635376,1933.292236 783.390869,1935.770630 
	C783.085388,1938.867554 779.837219,1943.348022 787.156555,1942.642822 
	C788.856140,1942.479126 788.345947,1945.213135 787.946533,1946.745728 
	C787.304443,1949.209351 785.849670,1950.826904 783.140686,1950.903320 
	C781.275757,1950.955933 780.176086,1949.858765 779.333008,1948.309082 
	C777.220398,1944.426025 778.631409,1940.622803 779.624878,1936.072510 
z"/>
<path fill="#368B60" opacity="1.000000" stroke="none" 
	d="
M691.741577,2006.199951 
	C689.931152,2011.952515 690.981934,2014.100098 696.420837,2011.332031 
	C696.760254,2012.109619 697.337219,2012.779175 697.193176,2013.205078 
	C696.075378,2016.511597 695.792908,2021.396729 690.901978,2020.523071 
	C685.877258,2019.625366 687.752747,2014.730957 687.567688,2011.377563 
	C687.270142,2005.981934 688.785767,2001.055786 693.362671,1996.966919 
	C692.853455,1999.809082 692.344299,2002.651245 691.741577,2006.199951 
z"/>
<path fill="#32835B" opacity="1.000000" stroke="none" 
	d="
M1336.877441,2095.349365 
	C1336.747925,2097.670898 1336.544434,2099.665771 1338.418335,2100.238037 
	C1339.990845,2100.718506 1343.202148,2097.732910 1342.448242,2102.452637 
	C1342.010132,2105.194336 1340.947144,2107.664551 1338.058350,2108.435059 
	C1335.157837,2109.208740 1333.803345,2107.156006 1333.231812,2104.762451 
	C1331.456543,2097.329102 1333.931396,2090.888672 1338.616089,2083.037842 
	C1339.404297,2088.363770 1337.867676,2091.477295 1336.877441,2095.349365 
z"/>
<path fill="#32835B" opacity="1.000000" stroke="none" 
	d="
M1568.254761,2051.620850 
	C1563.254639,2042.913452 1565.314819,2035.483765 1570.822266,2027.424072 
	C1572.387329,2031.734253 1570.389648,2034.377197 1569.720581,2037.096558 
	C1568.425781,2042.359497 1569.684326,2044.552734 1575.669067,2042.763306 
	C1574.405396,2047.173584 1574.178101,2051.403320 1568.254761,2051.620850 
z"/>
<path fill="#32835B" opacity="1.000000" stroke="none" 
	d="
M1205.732666,1984.116699 
	C1199.276611,1985.934692 1198.028442,1982.117432 1198.251953,1977.710083 
	C1198.533447,1972.160522 1199.465332,1966.627686 1203.956055,1961.497070 
	C1205.324341,1964.740601 1203.849854,1967.097900 1203.471558,1969.433105 
	C1202.923950,1972.812744 1200.430298,1976.259277 1207.007690,1977.208740 
	C1209.808838,1977.613037 1207.684326,1981.575562 1205.732666,1984.116699 
z"/>
<path fill="#32835B" opacity="1.000000" stroke="none" 
	d="
M653.990479,1944.269043 
	C655.608154,1941.036255 655.479431,1937.637207 659.242249,1935.392578 
	C659.706299,1940.003296 657.772888,1943.737061 657.247314,1947.608521 
	C657.018677,1949.292236 656.738770,1951.044067 659.048462,1951.380859 
	C660.745605,1951.628174 664.361511,1948.621216 662.922607,1953.727173 
	C662.117859,1956.582397 661.187012,1959.829590 657.383972,1959.802246 
	C654.497498,1959.781494 653.560364,1957.490601 653.560608,1954.939209 
	C653.560974,1951.623779 653.733643,1948.308472 653.990479,1944.269043 
z"/>
<path fill="#32835B" opacity="1.000000" stroke="none" 
	d="
M1413.450684,1956.360474 
	C1411.968628,1959.557617 1410.301270,1961.459229 1407.039062,1960.187378 
	C1404.385254,1959.152710 1404.225342,1956.818726 1404.130737,1954.429077 
	C1403.876465,1947.997925 1405.698242,1942.169800 1409.391602,1935.648438 
	C1411.343872,1939.818970 1409.196411,1942.640625 1408.792358,1945.579712 
	C1408.357544,1948.740723 1405.744385,1953.686768 1413.210938,1951.523682 
	C1414.352051,1951.193237 1414.022461,1954.219116 1413.450684,1956.360474 
z"/>
<path fill="#32835B" opacity="1.000000" stroke="none" 
	d="
M1089.040161,2023.951904 
	C1089.178223,2027.586060 1084.845947,2033.381470 1093.263916,2031.609741 
	C1094.394043,2031.371948 1094.094604,2034.406616 1093.560059,2035.922607 
	C1092.756958,2038.200317 1091.598755,2040.134644 1088.689209,2040.024292 
	C1086.363892,2039.936035 1084.900757,2038.716064 1084.506226,2036.563721 
	C1083.135132,2029.083008 1085.229004,2022.414673 1089.636841,2014.831055 
	C1091.353394,2018.748535 1089.665405,2020.992676 1089.040161,2023.951904 
z"/>
<path fill="#368B60" opacity="1.000000" stroke="none" 
	d="
M955.796265,1921.534424 
	C956.945984,1917.127808 957.244873,1913.078125 962.080139,1909.312988 
	C960.837219,1914.853638 959.985596,1918.832886 959.039490,1922.789429 
	C958.570496,1924.750610 959.368896,1926.151123 961.098633,1926.590820 
	C962.538391,1926.956543 965.959229,1922.901001 964.857239,1928.331421 
	C964.280029,1931.175781 963.372864,1934.290039 959.312622,1933.973755 
	C956.302734,1933.739136 955.648682,1931.641479 955.615417,1929.149292 
	C955.584778,1926.855103 955.658813,1924.559448 955.796265,1921.534424 
z"/>
<path fill="#32835B" opacity="1.000000" stroke="none" 
	d="
M1599.961060,1996.017090 
	C1600.229492,1998.565552 1599.594971,2000.414185 1598.572510,2002.136108 
	C1597.481445,2003.973877 1595.932861,2005.115845 1593.708130,2004.633789 
	C1591.494629,2004.154297 1590.511475,2002.493286 1590.279297,2000.368896 
	C1589.506592,1993.298584 1590.844971,1986.716919 1595.380371,1979.650879 
	C1597.469238,1984.758179 1594.757202,1988.455811 1594.154541,1992.197144 
	C1593.122559,1998.602173 1596.996582,1995.911255 1599.961060,1996.017090 
z"/>
<path fill="#32835B" opacity="1.000000" stroke="none" 
	d="
M1392.129761,1994.915527 
	C1391.125366,1998.799316 1389.145264,2000.780640 1385.571655,1999.703125 
	C1383.034302,1998.937744 1382.138672,1996.397461 1382.326050,1994.148438 
	C1382.857422,1987.771851 1383.306030,1981.242676 1388.429077,1975.700928 
	C1389.486572,1978.858765 1388.363770,1980.960571 1387.881958,1983.106812 
	C1386.260132,1990.330078 1386.225098,1990.322266 1392.129761,1994.915527 
z"/>
<path fill="#32835B" opacity="1.000000" stroke="none" 
	d="
M1544.706055,2073.853027 
	C1543.878662,2077.618408 1542.988892,2080.788086 1542.380493,2084.010986 
	C1541.996338,2086.046143 1542.257202,2088.440430 1545.099731,2087.812988 
	C1547.249878,2087.338623 1548.318237,2087.490967 1548.082520,2089.720459 
	C1547.839600,2092.016846 1547.149536,2094.369385 1544.919556,2095.550537 
	C1543.442627,2096.332764 1541.618408,2096.363037 1540.330811,2095.060791 
	C1539.454834,2094.174561 1538.497803,2092.948486 1538.385742,2091.795898 
	C1537.702637,2084.760254 1538.834106,2078.107666 1543.347412,2072.372559 
	C1543.455566,2072.235107 1544.016479,2072.301025 1544.245728,2072.453369 
	C1544.492188,2072.617188 1544.596313,2072.995361 1544.706055,2073.853027 
z"/>
<path fill="#32835B" opacity="1.000000" stroke="none" 
	d="
M789.724304,2016.813599 
	C790.476929,2014.586670 791.146057,2013.104004 793.548584,2012.445801 
	C792.892517,2016.743530 792.164978,2020.801147 791.704407,2024.888794 
	C791.529724,2026.438843 791.554565,2028.374878 794.189087,2027.947388 
	C795.507446,2027.733398 797.932800,2026.044800 797.209534,2029.331421 
	C796.681396,2031.731445 796.454590,2034.774048 793.342285,2035.745239 
	C791.221008,2036.407227 789.329834,2035.841797 788.308533,2033.824829 
	C787.742126,2032.706177 787.581970,2031.309692 787.514343,2030.023682 
	C787.286865,2025.703003 787.556274,2021.436157 789.724304,2016.813599 
z"/>
<path fill="#32835B" opacity="1.000000" stroke="none" 
	d="
M1019.100464,2021.857666 
	C1018.806885,2024.478882 1018.327942,2027.415039 1020.791931,2027.312500 
	C1024.589600,2027.154785 1024.546631,2028.919189 1024.016968,2031.439453 
	C1023.503723,2033.881714 1022.194763,2035.705322 1019.452087,2035.940918 
	C1016.677795,2036.179199 1014.738342,2034.698608 1014.480103,2032.167847 
	C1013.730225,2024.821045 1015.154785,2018.009155 1021.241821,2012.682739 
	C1020.595215,2015.511230 1019.948547,2018.339844 1019.100464,2021.857666 
z"/>
<path fill="#32835B" opacity="1.000000" stroke="none" 
	d="
M597.113403,2015.080566 
	C599.090271,2019.240234 595.464905,2022.625000 595.966980,2026.597656 
	C596.243774,2028.787964 595.693237,2031.926147 599.711731,2029.777588 
	C600.161499,2029.536987 601.252686,2029.540527 601.358765,2029.761230 
	C602.323975,2031.771240 601.430786,2033.545532 600.518188,2035.350464 
	C599.555725,2037.254150 598.291199,2038.664185 596.012268,2038.552734 
	C593.651245,2038.437134 592.478027,2036.758423 592.106873,2034.727905 
	C590.794312,2027.548096 592.577820,2021.016846 597.113403,2015.080566 
z"/>
<path fill="#32835B" opacity="1.000000" stroke="none" 
	d="
M994.516968,1990.937256 
	C987.337830,1993.146606 986.579773,1992.879883 986.188477,1987.841553 
	C985.669067,1981.153809 987.040649,1974.902344 991.619141,1968.468994 
	C993.160461,1973.689087 990.052612,1977.373901 990.071594,1981.370361 
	C990.080322,1983.211304 989.499146,1985.619995 992.645813,1985.475098 
	C993.727966,1985.425293 995.097412,1983.729980 995.747131,1985.673340 
	C996.259033,1987.204346 995.856506,1988.937134 994.516968,1990.937256 
z"/>
<path fill="#32835B" opacity="1.000000" stroke="none" 
	d="
M712.757568,1937.079834 
	C713.964539,1934.066284 714.220154,1931.208740 717.342957,1930.231812 
	C718.613464,1933.405151 715.780029,1935.947144 716.108887,1938.857056 
	C716.405640,1941.483276 713.854065,1946.216553 720.355469,1944.731323 
	C721.757202,1944.411133 721.768494,1946.550293 721.290710,1947.785278 
	C720.338623,1950.245728 719.517700,1952.975586 716.128723,1952.955444 
	C713.885437,1952.942139 712.357300,1951.687744 711.846985,1949.537109 
	C710.903503,1945.561035 711.778198,1941.645874 712.757568,1937.079834 
z"/>
<path fill="#32835B" opacity="1.000000" stroke="none" 
	d="
M1121.973877,2091.737061 
	C1120.615601,2095.095215 1118.675049,2096.705322 1115.620239,2095.725830 
	C1113.072510,2094.908936 1112.369873,2092.488770 1112.281372,2090.194336 
	C1112.023926,2083.529785 1113.926270,2077.538086 1118.025024,2071.550049 
	C1119.735962,2074.516602 1118.309570,2076.282715 1117.977539,2078.065430 
	C1116.764771,2084.576416 1116.677734,2084.537598 1121.991211,2089.190674 
	C1122.329346,2089.486816 1122.090454,2090.442383 1121.973877,2091.737061 
z"/>
<path fill="#32835B" opacity="1.000000" stroke="none" 
	d="
M885.525513,2039.776245 
	C886.121582,2033.546265 887.205200,2028.239746 892.441223,2022.290894 
	C891.377747,2028.145264 890.516418,2031.936035 890.067017,2035.775024 
	C889.852600,2037.607178 889.897522,2040.306641 893.085510,2039.022461 
	C895.691345,2037.972900 896.099304,2039.182251 895.656433,2041.119507 
	C894.989868,2044.035034 894.025818,2047.515015 890.566162,2047.617432 
	C886.146973,2047.748169 885.925110,2043.812378 885.525513,2039.776245 
z"/>
<path fill="#32835B" opacity="1.000000" stroke="none" 
	d="
M1144.170410,1931.446289 
	C1144.410278,1935.966675 1150.803467,1930.691406 1149.780273,1935.872437 
	C1149.213745,1938.740234 1148.283936,1942.092651 1144.397095,1941.899658 
	C1140.304688,1941.696533 1140.305786,1938.320679 1140.137817,1935.282837 
	C1139.799683,1929.167114 1141.535522,1923.678223 1145.356689,1917.535645 
	C1147.103516,1922.915527 1143.938232,1926.685669 1144.170410,1931.446289 
z"/>
<path fill="#32835B" opacity="1.000000" stroke="none" 
	d="
M1514.447510,2025.030762 
	C1514.509888,2028.598633 1511.300171,2033.780762 1518.721924,2031.783081 
	C1520.168457,2031.393677 1519.863403,2033.835083 1519.501465,2034.876831 
	C1518.649048,2037.330933 1517.846680,2040.054810 1514.397949,2039.999268 
	C1512.099854,2039.962158 1510.650391,2038.821045 1510.385864,2036.528076 
	C1509.543701,2029.231323 1510.311646,2022.290161 1514.917480,2015.841187 
	C1517.732422,2019.214966 1514.737427,2021.687744 1514.447510,2025.030762 
z"/>
<path fill="#32835B" opacity="1.000000" stroke="none" 
	d="
M964.077515,1995.331421 
	C962.950867,1995.974121 962.130371,1995.983643 960.694763,1996.013184 
	C960.301697,1990.792480 961.913208,1986.077881 965.664856,1980.495239 
	C967.395386,1986.457520 965.400635,1990.539673 964.077515,1995.331421 
z"/>
<path fill="#010101" opacity="1.000000" stroke="none" 
	d="
M899.242310,880.757446 
	C815.128723,796.644226 731.515198,713.030945 648.089722,629.605713 
	C649.915405,625.648987 652.683472,623.658813 655.014282,621.327454 
	C809.830383,466.473175 964.664612,311.636963 1119.514404,156.816345 
	C1128.383789,147.948578 1126.542236,148.156387 1135.398315,157.010452 
	C1289.072021,310.650177 1442.721924,464.313873 1596.377441,617.971802 
	C1597.554565,619.148987 1598.661865,620.410889 1599.934814,621.473938 
	C1602.867310,623.922668 1603.058594,626.265625 1600.055420,628.827148 
	C1598.540283,630.119568 1597.223755,631.644226 1595.810791,633.057190 
	C1441.444946,787.419006 1287.078613,941.780273 1132.712158,1096.141479 
	C1132.005249,1096.848511 1131.298706,1097.556030 1130.591309,1098.262573 
	C1123.295166,1105.550903 1124.174316,1105.690674 1116.781250,1098.297607 
	C1044.435425,1025.950317 972.088806,953.604004 899.242310,880.757446 
z"/>
<path fill="#020403" opacity="1.000000" stroke="none" 
	d="
M1169.981934,1741.286865 
	C1170.531738,1760.924194 1172.030518,1757.796753 1154.812012,1757.945190 
	C1146.708618,1758.015015 1141.030640,1753.223999 1139.789673,1746.304688 
	C1138.444458,1738.804321 1141.786377,1732.173462 1148.445068,1729.130737 
	C1154.973999,1726.147461 1162.013550,1728.082397 1166.914917,1734.243042 
	C1168.369385,1736.071289 1169.484619,1738.083740 1169.981934,1741.286865 
z"/>
<path fill="#020403" opacity="1.000000" stroke="none" 
	d="
M1812.203247,1746.984497 
	C1810.837402,1740.465698 1812.818115,1735.682129 1816.848877,1731.752686 
	C1822.799316,1725.951904 1832.642334,1726.385742 1838.312988,1732.513672 
	C1843.640381,1738.270508 1843.681641,1747.780518 1838.403931,1753.389282 
	C1832.834595,1759.308228 1822.540527,1759.872192 1816.881958,1754.299072 
	C1815.037231,1752.482056 1813.892456,1749.954224 1812.203247,1746.984497 
z"/>
<path fill="#020403" opacity="1.000000" stroke="none" 
	d="
M525.460815,1727.937500 
	C537.828003,1733.103149 542.460571,1742.463867 539.541809,1754.516846 
	C538.965576,1756.896362 537.649353,1757.892456 535.431152,1757.910645 
	C530.440613,1757.951538 525.405762,1758.312744 520.469788,1757.785767 
	C514.662048,1757.165649 509.557831,1751.666748 508.478485,1745.888794 
	C507.294281,1739.549683 510.347076,1733.137573 516.085083,1729.831177 
	C518.753967,1728.293457 521.580627,1727.522583 525.460815,1727.937500 
z"/>
<path fill="#010201" opacity="1.000000" stroke="none" 
	d="
M1214.760498,1474.343018 
	C1202.521240,1495.292236 1171.144043,1499.987305 1151.918701,1485.347412 
	C1145.086304,1480.144531 1140.028687,1473.682861 1137.929077,1465.277954 
	C1134.654663,1452.169800 1133.969727,1438.903564 1138.149780,1425.933838 
	C1143.439209,1409.522095 1156.824463,1399.781982 1174.043823,1399.163452 
	C1181.015503,1398.913086 1188.000732,1398.765015 1194.744629,1401.307373 
	C1204.492188,1404.982056 1212.138428,1410.911499 1216.346191,1420.689331 
	C1224.026123,1438.535645 1223.124023,1456.204590 1214.760498,1474.343018 
z"/>
<path fill="#020403" opacity="1.000000" stroke="none" 
	d="
M1972.727539,1460.034668 
	C1969.518555,1459.895630 1967.215210,1459.757690 1963.775391,1459.551514 
	C1969.072876,1443.445435 1975.804810,1428.561401 1983.312744,1411.406860 
	C1990.584839,1428.494507 1996.984863,1443.532959 2003.692139,1459.293457 
	C1992.760864,1460.636963 1983.177490,1459.770020 1972.727539,1460.034668 
z"/>
<path fill="#020403" opacity="1.000000" stroke="none" 
	d="
M683.932861,1444.040039 
	C688.710815,1433.524048 691.788696,1423.072021 698.060791,1411.844971 
	C705.100037,1428.471680 711.472778,1443.523926 718.245300,1459.520630 
	C704.328186,1459.520630 691.808044,1459.520630 678.750061,1459.520630 
	C679.116394,1454.091919 681.963562,1449.594604 683.932861,1444.040039 
z"/>
<path fill="#020403" opacity="1.000000" stroke="none" 
	d="
M1526.321289,1414.387695 
	C1526.444702,1401.205811 1524.537842,1401.037964 1538.898071,1401.053589 
	C1545.225952,1401.060425 1551.554321,1401.023438 1557.881714,1401.085938 
	C1561.900635,1401.125610 1565.792847,1401.748291 1569.488403,1403.543213 
	C1576.656128,1407.024292 1581.733154,1414.184692 1581.399902,1420.621582 
	C1581.039917,1427.575073 1575.116211,1435.117554 1567.373901,1437.173462 
	C1555.307495,1440.377808 1542.909668,1439.129517 1530.623169,1438.845337 
	C1527.291504,1438.768311 1526.322144,1436.356445 1526.349121,1433.304810 
	C1526.402100,1427.310669 1526.337280,1421.315552 1526.321289,1414.387695 
z"/>
<path fill="#020403" opacity="1.000000" stroke="none" 
	d="
M1179.535889,1950.205322 
	C1181.337036,1951.551147 1183.189331,1952.946045 1182.107422,1954.438110 
	C1180.478149,1956.685669 1177.515381,1957.322632 1175.079956,1956.006348 
	C1172.691040,1954.714844 1170.835938,1951.828491 1172.275024,1949.373901 
	C1174.175049,1946.133301 1176.751587,1949.159180 1179.535889,1950.205322 
z"/>
<path fill="#020403" opacity="1.000000" stroke="none" 
	d="
M1416.503174,2003.670288 
	C1414.069580,2002.317993 1411.871094,2001.470215 1410.861084,1998.992920 
	C1413.532349,1996.434082 1416.055908,1996.824341 1418.043945,1999.728271 
	C1418.957886,2001.063110 1420.660156,2003.293213 1416.503174,2003.670288 
z"/>
<path fill="#000000" opacity="1.000000" stroke="none" 
	d="
M1628.248047,1929.782227 
	C1631.396729,1930.110474 1634.356201,1930.511719 1636.699341,1933.044678 
	C1633.455200,1935.314819 1630.917725,1932.829468 1627.633545,1931.722168 
	C1627.310913,1931.042725 1627.578491,1930.682373 1628.248047,1929.782227 
z"/>
<path fill="#000000" opacity="1.000000" stroke="none" 
	d="
M768.507935,2035.659668 
	C766.366455,2036.279297 764.694885,2036.467041 764.070618,2034.659668 
	C763.884216,2034.119873 764.699524,2032.643433 765.219238,2032.554810 
	C767.208984,2032.215454 768.910828,2032.763062 768.507935,2035.659668 
z"/>
<path fill="#020403" opacity="1.000000" stroke="none" 
	d="
M559.025085,1931.675781 
	C558.140015,1930.238159 558.850037,1929.726196 559.938904,1929.810425 
	C560.316772,1929.839600 560.635925,1930.629395 560.981934,1931.072021 
	C560.447815,1931.326660 559.913635,1931.581421 559.025085,1931.675781 
z"/>
<path fill="#020403" opacity="1.000000" stroke="none" 
	d="
M567.884277,1932.897095 
	C567.354980,1933.193848 566.836121,1933.163696 566.317383,1933.133545 
	C566.358337,1932.858521 566.301331,1932.488770 566.458618,1932.326172 
	C566.945984,1931.821899 567.462341,1931.939453 567.884277,1932.897095 
z"/>
<path fill="#409E6E" opacity="1.000000" stroke="none" 
	d="
M1229.906860,548.092285 
	C1203.996582,522.105408 1178.586548,496.618286 1152.993408,470.947449 
	C1167.679810,456.190216 1182.580444,441.134460 1197.586426,426.184540 
	C1202.790771,420.999725 1203.061768,420.967255 1208.495728,426.375336 
	C1233.518433,451.278687 1258.439697,476.284119 1283.415527,501.234680 
	C1331.485596,549.255981 1379.619873,597.213135 1427.618896,645.305237 
	C1446.187012,663.909302 1464.460327,682.807495 1482.992798,701.698914 
	C1482.647095,704.924438 1479.750366,706.435120 1477.727051,708.459778 
	C1363.695435,822.564087 1249.621826,936.626221 1135.550659,1050.691040 
	C1134.136841,1052.104858 1132.728760,1053.526001 1131.272949,1054.895874 
	C1129.306641,1056.746216 1127.534302,1057.324219 1125.476685,1054.717285 
	C1123.631348,1052.379639 1121.294556,1050.429932 1119.174194,1048.309448 
	C981.068604,910.198975 842.963074,772.088440 704.857361,633.978088 
	C703.679565,632.800232 702.617676,631.467346 701.297852,630.479065 
	C698.718384,628.547546 699.069946,626.746216 701.149475,624.754578 
	C702.833923,623.141235 704.445312,621.451843 706.095093,619.802185 
	C844.910278,480.986908 983.719360,342.165710 1122.555420,203.371323 
	C1132.745850,193.183868 1130.423096,193.376114 1140.642944,203.592819 
	C1278.771973,341.679718 1416.872070,479.795837 1554.947510,617.936340 
	C1557.017212,620.007019 1559.734985,621.592896 1560.929810,625.199280 
	C1544.859619,641.291626 1528.623047,657.508667 1512.448975,673.788086 
	C1509.719604,676.535217 1507.356445,676.398376 1504.859619,673.612244 
	C1503.749390,672.373413 1502.504028,671.255920 1501.325562,670.077759 
	C1459.133911,627.896240 1416.906982,585.749817 1374.759644,543.524109 
	C1294.941650,463.557892 1215.170410,383.545013 1135.372803,303.558472 
	C1132.806152,300.985779 1130.164185,298.488434 1127.742310,296.135803 
	C1123.782349,297.444885 1121.893799,300.338776 1119.586792,302.644592 
	C1011.853149,410.321930 904.150635,518.030457 796.444702,625.735535 
	C795.501953,626.678223 794.641785,627.724243 793.605042,628.548462 
	C789.962097,631.444519 789.583496,634.120728 793.379272,637.406433 
	C797.149475,640.669983 800.496643,644.421875 804.034546,647.954346 
	C830.450378,674.329895 856.863647,700.708008 883.287170,727.075867 
	C889.868652,733.643494 889.942566,733.685669 896.426575,727.218262 
	C918.372803,705.328186 940.273987,683.393005 962.193237,661.475891 
	C963.843018,659.826294 965.597534,658.269470 967.133240,656.520203 
	C970.308289,652.903748 972.660278,653.372375 976.026001,656.864441 
	C988.694824,670.008911 1001.740051,682.790710 1014.648071,695.704590 
	C1061.353516,742.431519 1108.059326,789.158142 1154.768188,835.881653 
	C1164.592896,845.709595 1174.431152,855.523865 1184.622559,865.703491 
	C1171.092285,879.399109 1158.155640,892.625488 1145.069580,905.702209 
	C1132.396851,918.365906 1119.633545,930.941162 1106.762207,943.402588 
	C1103.896484,946.177124 1104.292358,947.958862 1106.762695,950.778198 
	C1120.002686,965.888672 1119.932495,965.956787 1133.977905,951.915527 
	C1163.206421,922.695679 1192.401489,893.442139 1221.708130,864.300781 
	C1224.287964,861.735535 1227.586914,859.893616 1231.546387,856.985535 
	C1153.103271,778.544067 1076.401611,701.844116 999.878357,625.322510 
	C1000.555481,621.475281 1003.608215,620.176819 1005.629944,618.124268 
	C1017.558167,606.014587 1029.617798,594.034363 1041.647827,582.025085 
	C1050.492188,573.195862 1048.714233,573.680786 1057.583130,582.350403 
	C1060.204590,584.912964 1062.771851,587.530945 1065.364380,590.123230 
	C1133.950317,658.702698 1202.536255,727.282227 1271.122803,795.861206 
	C1273.008301,797.746460 1274.996582,799.539429 1276.765869,801.527649 
	C1279.287842,804.361755 1281.532349,804.461182 1284.255981,801.660278 
	C1291.226074,794.492554 1298.334717,787.459045 1305.434814,780.419067 
	C1307.531738,778.339966 1307.475586,776.545959 1305.294800,774.571472 
	C1303.321045,772.784668 1301.510620,770.817749 1299.625610,768.932800 
	C1227.741821,697.052246 1155.862793,625.166931 1083.948486,553.316833 
	C1081.847778,551.217957 1079.375244,549.491272 1076.573120,547.175537 
	C1092.940430,530.789551 1108.488281,515.332214 1123.891479,499.731781 
	C1128.042725,495.527405 1130.319336,498.947845 1132.837769,501.458832 
	C1149.118774,517.691589 1165.344849,533.979309 1181.606689,550.231323 
	C1238.642944,607.233154 1295.684082,664.230408 1352.738892,721.213867 
	C1354.593018,723.065674 1356.110229,725.396729 1360.837646,726.543457 
	C1366.698486,720.211975 1373.129150,713.014160 1379.858521,706.107300 
	C1382.919922,702.965271 1382.771118,700.537964 1379.633911,697.786255 
	C1377.883789,696.251282 1376.322021,694.501587 1374.672363,692.851929 
	C1326.584229,644.765015 1278.495605,596.678589 1229.906860,548.092285 
z"/>
<path fill="#41A070" opacity="1.000000" stroke="none" 
	d="
M943.329102,527.329468 
	C953.419922,517.244446 963.010681,507.659515 972.562866,498.113220 
	C990.013245,515.652344 1006.878723,532.603577 1023.699036,549.509399 
	C1009.473206,563.756958 994.741821,578.556946 979.953186,593.299500 
	C974.022583,599.211609 973.886780,599.233154 968.364502,593.748718 
	C954.681091,580.159119 941.185120,566.378418 927.367981,552.927124 
	C923.666016,549.323181 923.255249,546.874329 927.252930,543.281250 
	C932.685608,538.398438 937.658813,533.004456 943.329102,527.329468 
z"/>
<path fill="#419E6F" opacity="1.000000" stroke="none" 
	d="
M1029.338135,498.661743 
	C1020.096802,489.083771 1011.355530,480.005646 1002.799011,471.119415 
	C1017.305420,456.512787 1032.037231,441.615570 1046.848633,426.798035 
	C1052.384277,421.260101 1052.546387,421.267059 1057.665039,426.348022 
	C1071.139282,439.722931 1084.546509,453.165436 1097.959839,466.601685 
	C1099.348877,467.993134 1100.922241,469.290100 1101.371826,471.198975 
	C1085.011719,487.690918 1068.713379,504.120667 1051.844604,521.125366 
	C1044.373291,513.668518 1037.105713,506.415070 1029.338135,498.661743 
z"/>
<path fill="#419E6F" opacity="1.000000" stroke="none" 
	d="
M869.401062,648.599060 
	C862.001282,641.354980 855.101501,634.610840 848.482239,628.140930 
	C849.322205,624.153931 852.035583,622.555603 854.060181,620.512268 
	C866.956360,607.496887 880.037598,594.663391 892.828674,581.546387 
	C896.076477,578.215820 898.150024,577.750305 901.636597,581.328918 
	C915.118896,595.167419 928.890625,608.724060 942.565430,622.374817 
	C944.762817,624.568298 946.866699,626.395447 943.549866,629.665283 
	C928.144348,644.852356 912.912109,660.215271 896.980164,676.153137 
	C887.696472,666.877991 878.798767,657.988525 869.401062,648.599060 
z"/>
<path fill="#3F9C6D" opacity="1.000000" stroke="none" 
	d="
M1114.865112,433.081299 
	C1102.687256,420.796844 1091.004150,409.008087 1079.459961,397.359467 
	C1095.320801,381.459534 1111.555542,365.184692 1127.603394,349.097076 
	C1143.424805,365.107544 1159.391479,381.265228 1175.495605,397.561798 
	C1161.434814,411.655029 1146.617676,426.365021 1131.998047,441.268707 
	C1128.726929,444.603363 1126.234375,445.110382 1123.057495,441.372528 
	C1120.699097,438.597717 1117.940308,436.163116 1114.865112,433.081299 
z"/>
<path fill="#000000" opacity="1.000000" stroke="none" 
	d="
M944.054810,787.944092 
	C939.088318,782.957275 934.654968,778.436768 930.140686,773.998596 
	C928.059692,771.952637 928.050110,770.163696 930.128906,768.082520 
	C939.522339,758.678040 948.854675,749.212708 957.553467,740.431152 
	C1003.570923,786.460327 1048.955078,831.856018 1093.700439,876.612732 
	C1084.382324,886.144958 1074.263428,896.496338 1063.559570,907.446167 
	C1024.119141,868.006531 984.337036,828.225281 944.054810,787.944092 
z"/>
</svg>